<?xml version="1.0" encoding="utf-8"?>
<!-- Generator: Adobe Illustrator 23.0.3, SVG Export Plug-In . SVG Version: 6.00 Build 0)  -->
<svg version="1.1" id="Layer_1" xmlns="http://www.w3.org/2000/svg" xmlns:xlink="http://www.w3.org/1999/xlink" x="0px" y="0px"
	 viewBox="0 0 933.2 980" style="enable-background:new 0 0 933.2 980;" xml:space="preserve">
<g>
	<path d="M216.9,103.1c-48.1,0-87.2,38.8-87.2,86.8c0,47.6,39.2,86.8,87.2,86.8c48.6,0,87.7-39.2,87.7-86.8
		C304.7,141.9,265.5,103.1,216.9,103.1z M312.2,567.9l-1.4,27.1v1.4L329,913.7h-83.5l-14-270.2h-35l-17.3,270.2h-78.4l12.1-317.3
		l-6.1-128.3L35,570.3L0,541.8l105.9-239.9h59.7l52.8,83l59.2-83h46.2l18.6-45.3l110.6,0.5L427.4,280l26.6,24.8L420.4,484l58.8,49
		l56.9-49l-35.5-179.7l28.5-25.2L503,256.7h105l18.7,45.3h53.1l53.7,72.3l58.3-72.3h50.8l90.6,224.5l-37.3,32.2l-63.5-105.9L825,595
		v1.4l18.1,317.3h-83.5l-14-270.2h-35.4l-16.8,270.2H615l12.1-317.3l-0.9-22.4L594,601.1L608.5,980h-93.3l-20.6-322.9h-42.5
		L435.8,980h-99.9l21.9-378.9L312.2,567.9z M731.2,103.1c-48.1,0-87.3,38.8-87.3,86.8c0,47.6,39.2,86.8,87.3,86.8
		c48.5,0,87.7-39.2,87.7-86.8C818.9,141.9,779.7,103.1,731.2,103.1z M475.5,0c-60.7,0-109.2,48.6-109.2,108.3
		c0,59.8,48.5,108.3,109.2,108.3c60.2,0,108.7-48.5,108.7-108.3C584.2,48.6,535.7,0,475.5,0z"/>
</g>
</svg>
