<svg xmlns="http://www.w3.org/2000/svg" viewBox="0 0 353.2 105.44"><defs><style>.cls-1{fill:#fcbd2a;}.cls-2{fill:#27387d;}.cls-3{fill:#fff;}</style></defs><title>Logo-Yellow</title><g id="Layer_2" data-name="Layer 2"><g id="Layer_1-2" data-name="Layer 1"><path class="cls-1" d="M2.82,103.12a2.75,2.75,0,0,1-2.82-3,5.44,5.44,0,0,1,1.34-3.57A3.67,3.67,0,0,1,3.9,95.46c2,0,2.81,1.46,2.81,3A5.31,5.31,0,0,1,5.42,102a3.48,3.48,0,0,1-2.59,1.11Zm.12-.77c1.58,0,2.79-2,2.79-3.81,0-1.05-.34-2.31-2-2.31S1,98.33,1,100c0,1.21.52,2.32,2,2.32Z"/><path class="cls-1" d="M8,103l.71-3.77c.12-.6.19-1.11.25-1.55h.82l-.14,1h0a2.37,2.37,0,0,1,2-1.17A1.31,1.31,0,0,1,13,99a5.47,5.47,0,0,1-.09.86l-.6,3.11h-.9L12,99.92a3.64,3.64,0,0,0,.07-.68c0-.53-.21-.93-.84-.93a2.35,2.35,0,0,0-1.81,2.11L8.94,103Z"/><path class="cls-1" d="M18.57,102.7a3.83,3.83,0,0,1-1.76.42,1.93,1.93,0,0,1-2-2.14c0-1.61,1.19-3.43,2.91-3.43a1.39,1.39,0,0,1,1.56,1.38c0,1.4-1.57,1.76-3.54,1.73a2.14,2.14,0,0,0,.11,1,1.2,1.2,0,0,0,1.19.71,3,3,0,0,0,1.43-.36Zm-.2-3.76c0-.43-.33-.67-.81-.67-.87,0-1.52.85-1.74,1.68,1.43,0,2.55-.17,2.55-1Z"/><path class="cls-1" d="M25.94,96.38H23.77l.16-.79h5.25l-.15.79H26.85L25.6,103h-.92Z"/><path class="cls-1" d="M32.6,102.7a3.76,3.76,0,0,1-1.76.42,1.93,1.93,0,0,1-2-2.14c0-1.61,1.19-3.43,2.9-3.43a1.39,1.39,0,0,1,1.57,1.38c0,1.4-1.58,1.76-3.55,1.73a2.28,2.28,0,0,0,.11,1,1.2,1.2,0,0,0,1.19.71,2.93,2.93,0,0,0,1.43-.36Zm-.19-3.76c0-.43-.33-.67-.82-.67-.87,0-1.52.85-1.74,1.68,1.43,0,2.56-.17,2.56-1Z"/><path class="cls-1" d="M38.11,103c0-.32.06-.83.12-1.37h0a2.31,2.31,0,0,1-2.06,1.49,1.57,1.57,0,0,1-1.53-1.76,3.71,3.71,0,0,1,3.67-3.81,5.36,5.36,0,0,1,1.43.2l-.54,2.79A12.61,12.61,0,0,0,39,103Zm.59-4.64a1.84,1.84,0,0,0-.63-.08,2.82,2.82,0,0,0-2.51,2.92c0,.59.21,1.17.9,1.17s1.68-1,1.93-2.41Z"/><path class="cls-1" d="M41.14,103l.72-3.77c.1-.6.18-1.11.24-1.55h.8l-.14,1h0a2.25,2.25,0,0,1,1.87-1.13,1.16,1.16,0,0,1,1.24,1.19,2.32,2.32,0,0,1,2-1.19,1.27,1.27,0,0,1,1.3,1.4,6.09,6.09,0,0,1-.09.9L48.47,103h-.9l.58-3.07a3.84,3.84,0,0,0,.07-.69c0-.56-.21-.93-.8-.93s-1.45.77-1.67,2L45.24,103h-.88l.6-3.12a3.93,3.93,0,0,0,.06-.65c0-.45-.12-.92-.79-.92s-1.5.88-1.7,2L42,103Z"/><path class="cls-1" d="M50.07,104.36a17.12,17.12,0,0,0,1.08-2.64l1.09-.11a16.82,16.82,0,0,1-1.46,2.68Z"/><path class="cls-1" d="M59.23,103.12a2.75,2.75,0,0,1-2.81-3,5.39,5.39,0,0,1,1.34-3.57,3.67,3.67,0,0,1,2.56-1.08,2.73,2.73,0,0,1,2.81,3A5.31,5.31,0,0,1,61.84,102a3.49,3.49,0,0,1-2.6,1.11Zm.13-.77c1.58,0,2.79-2,2.79-3.81,0-1.05-.34-2.31-2-2.31s-2.81,2.1-2.81,3.8c0,1.21.52,2.32,2,2.32Z"/><path class="cls-1" d="M64.46,103l.7-3.77c.12-.6.2-1.11.26-1.55h.82l-.14,1h0a2.36,2.36,0,0,1,2-1.17A1.31,1.31,0,0,1,69.44,99a4.55,4.55,0,0,1-.1.86L68.75,103h-.9l.58-3.08a4.73,4.73,0,0,0,.07-.68c0-.53-.21-.93-.84-.93a2.35,2.35,0,0,0-1.81,2.11L65.36,103Z"/><path class="cls-1" d="M75,102.7a3.83,3.83,0,0,1-1.76.42,1.93,1.93,0,0,1-2-2.14c0-1.61,1.19-3.43,2.91-3.43a1.39,1.39,0,0,1,1.56,1.38c0,1.4-1.57,1.76-3.54,1.73a2.14,2.14,0,0,0,.11,1,1.19,1.19,0,0,0,1.18.71,2.93,2.93,0,0,0,1.43-.36Zm-.2-3.76c0-.43-.33-.67-.82-.67-.86,0-1.51.85-1.73,1.68,1.43,0,2.55-.17,2.55-1Z"/><path class="cls-1" d="M86,103l.53-4c.1-.71.26-1.8.39-2.51h0c-.34.75-.76,1.63-1.15,2.39L83.56,103h-.7l-.55-4c-.11-.85-.18-1.71-.23-2.47h0c-.16.68-.39,1.8-.56,2.51l-1,4h-.86l1.92-7.41h1.17l.58,4.25c.08.63.15,1.3.18,1.86h0c.23-.56.55-1.22.87-1.83l2.29-4.28h1.2l-1,7.41Z"/><path class="cls-1" d="M89.25,103l1-5.32h.91l-1,5.32ZM91,96.7a.55.55,0,0,1-.54-.6.64.64,0,0,1,.63-.65.57.57,0,0,1,.57.6.64.64,0,0,1-.65.65Z"/><path class="cls-1" d="M92.65,102.09a2.41,2.41,0,0,0,1.15.33.92.92,0,0,0,1-.87c0-.42-.19-.68-.75-1a1.58,1.58,0,0,1-1-1.35A1.77,1.77,0,0,1,95,97.55a2.23,2.23,0,0,1,1.1.27l-.25.69a1.88,1.88,0,0,0-.92-.24.86.86,0,0,0-1,.8c0,.39.25.63.73.89a1.66,1.66,0,0,1,1,1.41,1.81,1.81,0,0,1-2,1.75,2.39,2.39,0,0,1-1.32-.36Z"/><path class="cls-1" d="M97.58,102.09a2.37,2.37,0,0,0,1.14.33.92.92,0,0,0,1-.87c0-.42-.18-.68-.74-1a1.58,1.58,0,0,1-1-1.35A1.76,1.76,0,0,1,100,97.55a2.23,2.23,0,0,1,1.1.27l-.26.69a1.81,1.81,0,0,0-.91-.24.87.87,0,0,0-1,.8c0,.39.26.63.74.89a1.68,1.68,0,0,1,1,1.41,1.81,1.81,0,0,1-2,1.75,2.43,2.43,0,0,1-1.33-.36Z"/><path class="cls-1" d="M102.45,103l1-5.32h.91l-1,5.32Zm1.71-6.3a.55.55,0,0,1-.54-.6.64.64,0,0,1,.63-.65.57.57,0,0,1,.57.6.64.64,0,0,1-.65.65Z"/><path class="cls-1" d="M107.94,103.12a2,2,0,0,1-2.08-2.19,3.19,3.19,0,0,1,3-3.38,2,2,0,0,1,2.09,2.22,3.19,3.19,0,0,1-3,3.35Zm.11-.73c1.08,0,1.89-1.38,1.89-2.62,0-.62-.28-1.49-1.24-1.49-1.14,0-1.9,1.4-1.9,2.62,0,.87.48,1.49,1.24,1.49Z"/><path class="cls-1" d="M112.37,103l.71-3.77c.12-.6.2-1.11.25-1.55h.83l-.15,1h0a2.37,2.37,0,0,1,2-1.17A1.31,1.31,0,0,1,117.36,99a5.55,5.55,0,0,1-.1.86l-.6,3.11h-.9l.59-3.08a4.78,4.78,0,0,0,.06-.68c0-.53-.21-.93-.84-.93a2.36,2.36,0,0,0-1.81,2.11l-.48,2.58Z"/><path class="cls-1" d="M122.4,103.12a.61.61,0,0,1-.6-.64.7.7,0,0,1,.68-.73.6.6,0,0,1,.62.64.69.69,0,0,1-.69.73Zm.74-3.88a.6.6,0,0,1-.59-.64.7.7,0,0,1,.68-.74.61.61,0,0,1,.62.65.7.7,0,0,1-.7.73Z"/><path class="cls-1" d="M132.67,102.77a4.85,4.85,0,0,1-1.93.35,2.82,2.82,0,0,1-3-3.08,4.62,4.62,0,0,1,1.57-3.57,4.25,4.25,0,0,1,2.81-1,3.15,3.15,0,0,1,1.6.35l-.29.73a3.18,3.18,0,0,0-1.47-.3,3.11,3.11,0,0,0-2.12.83,3.93,3.93,0,0,0-1.13,2.83,2.12,2.12,0,0,0,2.25,2.42,3.76,3.76,0,0,0,1.59-.32Z"/><path class="cls-1" d="M136.5,103.12a2,2,0,0,1-2.08-2.19,3.19,3.19,0,0,1,3-3.38,2,2,0,0,1,2.09,2.22,3.19,3.19,0,0,1-3,3.35Zm.11-.73c1.07,0,1.89-1.38,1.89-2.62a1.32,1.32,0,0,0-1.24-1.49c-1.15,0-1.91,1.4-1.91,2.62,0,.87.49,1.49,1.25,1.49Z"/><path class="cls-1" d="M140.92,103l.71-3.77c.11-.6.19-1.11.25-1.55h.8l-.14,1h0a2.24,2.24,0,0,1,1.87-1.13,1.16,1.16,0,0,1,1.24,1.19,2.3,2.3,0,0,1,1.95-1.19,1.28,1.28,0,0,1,1.3,1.4,6.09,6.09,0,0,1-.09.9l-.6,3.15h-.89l.58-3.07a3.84,3.84,0,0,0,.07-.69c0-.56-.21-.93-.8-.93s-1.45.77-1.67,2L145,103h-.88l.6-3.12a3.93,3.93,0,0,0,.06-.65c0-.45-.12-.92-.79-.92s-1.5.88-1.7,2l-.5,2.67Z"/><path class="cls-1" d="M150.63,103l.72-3.77c.11-.6.18-1.11.24-1.55h.8l-.14,1h0a2.26,2.26,0,0,1,1.87-1.13,1.15,1.15,0,0,1,1.24,1.19,2.32,2.32,0,0,1,2-1.19,1.27,1.27,0,0,1,1.3,1.4,5,5,0,0,1-.09.9L158,103h-.89l.57-3.07a3.83,3.83,0,0,0,.08-.69c0-.56-.21-.93-.81-.93s-1.45.77-1.67,2l-.51,2.73h-.88l.6-3.12a4,4,0,0,0,.07-.65c0-.45-.13-.92-.8-.92s-1.49.88-1.7,2l-.5,2.67Z"/><path class="cls-1" d="M160.34,103l1-5.32h.91l-1,5.32Zm1.71-6.3a.55.55,0,0,1-.54-.6.65.65,0,0,1,.63-.65.57.57,0,0,1,.57.6.64.64,0,0,1-.65.65Z"/><path class="cls-1" d="M166,96.4l-.24,1.28h1.28l-.15.71h-1.27l-.49,2.6a4.21,4.21,0,0,0-.11.84.46.46,0,0,0,.51.52,1.85,1.85,0,0,0,.43,0L166,103a2,2,0,0,1-.7.1,1,1,0,0,1-1.12-1,4.75,4.75,0,0,1,.12-1l.52-2.7H164l.13-.71h.76l.19-1Z"/><path class="cls-1" d="M170.31,96.4l-.24,1.28h1.28l-.15.71h-1.27l-.49,2.6a4.21,4.21,0,0,0-.11.84.46.46,0,0,0,.51.52,1.85,1.85,0,0,0,.43,0l-.05.71a2,2,0,0,1-.7.1,1,1,0,0,1-1.12-1,4.75,4.75,0,0,1,.12-1l.51-2.7h-.75l.13-.71h.76l.18-1Z"/><path class="cls-1" d="M176,102.7a3.83,3.83,0,0,1-1.76.42,1.92,1.92,0,0,1-2-2.14c0-1.61,1.18-3.43,2.9-3.43a1.39,1.39,0,0,1,1.56,1.38c0,1.4-1.57,1.76-3.54,1.73a2.28,2.28,0,0,0,.11,1,1.2,1.2,0,0,0,1.19.71,3,3,0,0,0,1.43-.36Zm-.2-3.76c0-.43-.33-.67-.81-.67-.87,0-1.52.85-1.74,1.68,1.43,0,2.55-.17,2.55-1Z"/><path class="cls-1" d="M183.65,95.19l-1.17,6.13a14.61,14.61,0,0,0-.22,1.68h-.84l.14-1.06h0a2.26,2.26,0,0,1-1.92,1.18c-1,0-1.59-.85-1.59-1.93a3.51,3.51,0,0,1,3.29-3.64,2.43,2.43,0,0,1,1,.19l.47-2.55Zm-1.54,3.32a1.49,1.49,0,0,0-.87-.23,2.62,2.62,0,0,0-2.26,2.78c0,.64.22,1.31,1,1.31s1.55-.8,1.78-2Z"/><path class="cls-1" d="M189.77,96.4l-.24,1.28h1.27l-.14.71h-1.28l-.48,2.6a3.59,3.59,0,0,0-.11.84.46.46,0,0,0,.51.52,1.91,1.91,0,0,0,.43,0l0,.71a2,2,0,0,1-.7.1,1,1,0,0,1-1.13-1,4.82,4.82,0,0,1,.13-1l.51-2.7h-.76l.14-.71h.75l.19-1Z"/><path class="cls-1" d="M193.78,103.12a2,2,0,0,1-2.07-2.19,3.18,3.18,0,0,1,2.94-3.38,2,2,0,0,1,2.09,2.22,3.18,3.18,0,0,1-2.94,3.35Zm.11-.73c1.08,0,1.9-1.38,1.9-2.62a1.32,1.32,0,0,0-1.25-1.49c-1.14,0-1.9,1.4-1.9,2.62,0,.87.48,1.49,1.24,1.49Z"/><path class="cls-1" d="M202.46,95.7a8,8,0,0,1,1.61-.16,2.67,2.67,0,0,1,1.81.57,1.68,1.68,0,0,1,.54,1.34,2.51,2.51,0,0,1-.89,1.92,3.53,3.53,0,0,1-2.24.71,5.7,5.7,0,0,1-.76,0l-.56,3h-.9Zm.21,3.56a3.71,3.71,0,0,0,.74.07,1.88,1.88,0,0,0,2.09-1.82c0-.88-.63-1.23-1.48-1.23a3.06,3.06,0,0,0-.8.08Z"/><path class="cls-1" d="M212.49,97.68l-.72,3.77c-.11.59-.19,1.11-.23,1.55h-.83l.15-1h0a2.37,2.37,0,0,1-1.88,1.12c-.68,0-1.41-.33-1.41-1.54a5.59,5.59,0,0,1,.1-.9l.59-3h.9l-.56,3a3.89,3.89,0,0,0-.09.78c0,.55.22.92.85.92a2.19,2.19,0,0,0,1.73-1.95l.52-2.72Z"/><path class="cls-1" d="M216.26,95.19l-.71,3.45h0a2.24,2.24,0,0,1,1.86-1.09c1.17,0,1.61,1,1.61,1.92a3.52,3.52,0,0,1-3.31,3.65c-.93,0-1.64-.38-1.64-1.36a3.86,3.86,0,0,1,.1-.84l1.14-5.73Zm-1.16,5.75a2.33,2.33,0,0,0-.06.69c0,.5.29.78.85.78,1.38,0,2.21-1.64,2.21-2.83,0-.66-.28-1.27-1-1.27s-1.6.82-1.87,2.07Z"/><path class="cls-1" d="M220.52,103,222,95.19h.91L221.44,103Z"/><path class="cls-1" d="M223.86,103l1-5.32h.91l-1,5.32Zm1.7-6.3a.55.55,0,0,1-.54-.6.65.65,0,0,1,.63-.65.57.57,0,0,1,.57.6.64.64,0,0,1-.65.65Z"/><path class="cls-1" d="M230.85,102.79a3.49,3.49,0,0,1-1.54.33,1.91,1.91,0,0,1-2-2.06,3.39,3.39,0,0,1,3.25-3.51,2.44,2.44,0,0,1,1.11.25l-.26.71a2.07,2.07,0,0,0-.9-.2,2.49,2.49,0,0,0-2.26,2.63,1.26,1.26,0,0,0,1.32,1.43,2.86,2.86,0,0,0,1.24-.29Z"/><path class="cls-1" d="M235.66,101.86a2.86,2.86,0,0,0,1.57.47,1.46,1.46,0,0,0,1.61-1.39c0-.56-.31-1-1.09-1.38-.95-.52-1.47-1.11-1.47-1.91a2.28,2.28,0,0,1,2.5-2.17,2.85,2.85,0,0,1,1.52.38l-.33.75a2.41,2.41,0,0,0-1.27-.35,1.33,1.33,0,0,0-1.48,1.21c0,.6.38.94,1.16,1.37a2.19,2.19,0,0,1,1.4,2,2.38,2.38,0,0,1-2.67,2.3,3,3,0,0,1-1.78-.52Z"/><path class="cls-1" d="M245.1,103a12.3,12.3,0,0,1,.12-1.37h0a2.32,2.32,0,0,1-2.07,1.49,1.57,1.57,0,0,1-1.53-1.76,3.71,3.71,0,0,1,3.67-3.81,5.36,5.36,0,0,1,1.43.2l-.54,2.79a12.61,12.61,0,0,0-.22,2.46Zm.58-4.64a1.8,1.8,0,0,0-.63-.08,2.82,2.82,0,0,0-2.5,2.92c0,.59.2,1.17.9,1.17s1.67-1,1.92-2.41Z"/><path class="cls-1" d="M248.26,103l.86-4.61h-.7l.13-.71h.72l0-.29a3.24,3.24,0,0,1,.87-1.85,1.88,1.88,0,0,1,1.26-.47,1.46,1.46,0,0,1,.74.14l-.2.73a1.24,1.24,0,0,0-.54-.1c-.72,0-1.07.7-1.23,1.58l0,.26h1.19l-.15.71H250l-.87,4.61Z"/><path class="cls-1" d="M255.89,102.7a3.83,3.83,0,0,1-1.76.42,1.93,1.93,0,0,1-2-2.14c0-1.61,1.19-3.43,2.91-3.43a1.39,1.39,0,0,1,1.56,1.38c0,1.4-1.57,1.76-3.54,1.73a2.14,2.14,0,0,0,.11,1,1.2,1.2,0,0,0,1.19.71,3,3,0,0,0,1.43-.36Zm-.2-3.76c0-.43-.33-.67-.81-.67-.87,0-1.52.85-1.74,1.68,1.43,0,2.55-.17,2.55-1Z"/><path class="cls-1" d="M260.21,96.4,260,97.68h1.28l-.15.71h-1.27l-.49,2.6a4.21,4.21,0,0,0-.11.84.46.46,0,0,0,.51.52,1.85,1.85,0,0,0,.43,0l-.05.71a2,2,0,0,1-.7.1,1,1,0,0,1-1.12-1,4.75,4.75,0,0,1,.12-1l.51-2.7h-.75l.13-.71h.76l.18-1Z"/><path class="cls-1" d="M263.42,97.68l.53,2.86c.12.61.19,1,.24,1.4h0c.14-.34.29-.71.57-1.31l1.36-2.95h1l-2,4a10.06,10.06,0,0,1-1.84,2.81,3.35,3.35,0,0,1-1.54.91l-.23-.78a3.5,3.5,0,0,0,1-.52,3.78,3.78,0,0,0,1-1.23.25.25,0,0,0,0-.24l-1.06-5Z"/><path class="cls-1" d="M272.19,95.7a8,8,0,0,1,1.61-.16,2.69,2.69,0,0,1,1.81.57,1.71,1.71,0,0,1,.54,1.34,2.54,2.54,0,0,1-.89,1.92,3.53,3.53,0,0,1-2.24.71,5.7,5.7,0,0,1-.76,0l-.56,3h-.91Zm.21,3.56a3.64,3.64,0,0,0,.74.07,1.88,1.88,0,0,0,2.09-1.82c0-.88-.63-1.23-1.48-1.23a3,3,0,0,0-.8.08Z"/><path class="cls-1" d="M277,103l.65-3.43c.13-.69.21-1.4.26-1.89h.81c0,.37-.08.73-.15,1.15h0a2,2,0,0,1,1.62-1.28,2.23,2.23,0,0,1,.27,0l-.18.9-.25,0c-.78,0-1.49,1-1.72,2.19L278,103Z"/><path class="cls-1" d="M283.45,103.12a2,2,0,0,1-2.07-2.19,3.18,3.18,0,0,1,2.94-3.38,2,2,0,0,1,2.09,2.22,3.18,3.18,0,0,1-2.94,3.35Zm.11-.73c1.08,0,1.9-1.38,1.9-2.62a1.32,1.32,0,0,0-1.25-1.49c-1.14,0-1.9,1.4-1.9,2.62,0,.87.48,1.49,1.24,1.49Z"/><path class="cls-1" d="M288,103l.87-4.61h-.71l.14-.71H289l0-.29a3.31,3.31,0,0,1,.87-1.85,1.9,1.9,0,0,1,1.27-.47,1.44,1.44,0,0,1,.73.14l-.19.73a1.27,1.27,0,0,0-.54-.1c-.73,0-1.08.7-1.23,1.58l-.05.26h1.19l-.14.71h-1.18l-.87,4.61Z"/><path class="cls-1" d="M295.64,102.7a3.76,3.76,0,0,1-1.76.42,1.92,1.92,0,0,1-2-2.14c0-1.61,1.19-3.43,2.9-3.43a1.39,1.39,0,0,1,1.56,1.38c0,1.4-1.57,1.76-3.54,1.73a2.28,2.28,0,0,0,.11,1,1.2,1.2,0,0,0,1.19.71,2.93,2.93,0,0,0,1.43-.36Zm-.2-3.76c0-.43-.33-.67-.81-.67-.87,0-1.52.85-1.74,1.68,1.43,0,2.55-.17,2.55-1Z"/><path class="cls-1" d="M297.67,102.09a2.37,2.37,0,0,0,1.14.33.92.92,0,0,0,1-.87c0-.42-.18-.68-.75-1a1.59,1.59,0,0,1-.95-1.35,1.76,1.76,0,0,1,1.93-1.66,2.17,2.17,0,0,1,1.1.27l-.25.69a1.87,1.87,0,0,0-.91-.24.87.87,0,0,0-1,.8c0,.39.25.63.74.89a1.68,1.68,0,0,1,1,1.41,1.81,1.81,0,0,1-2,1.75,2.39,2.39,0,0,1-1.32-.36Z"/><path class="cls-1" d="M302.59,102.09a2.45,2.45,0,0,0,1.15.33.92.92,0,0,0,1-.87c0-.42-.19-.68-.75-1a1.59,1.59,0,0,1-.95-1.35A1.76,1.76,0,0,1,305,97.55a2.23,2.23,0,0,1,1.1.27l-.25.69a1.88,1.88,0,0,0-.92-.24.86.86,0,0,0-1,.8c0,.39.25.63.73.89a1.66,1.66,0,0,1,1,1.41,1.81,1.81,0,0,1-2,1.75,2.39,2.39,0,0,1-1.32-.36Z"/><path class="cls-1" d="M307.47,103l1-5.32h.91l-1,5.32Zm1.7-6.3a.55.55,0,0,1-.54-.6.65.65,0,0,1,.63-.65.57.57,0,0,1,.57.6.64.64,0,0,1-.65.65Z"/><path class="cls-1" d="M313,103.12a2,2,0,0,1-2.08-2.19,3.18,3.18,0,0,1,2.94-3.38,2,2,0,0,1,2.09,2.22,3.18,3.18,0,0,1-2.94,3.35Zm.1-.73c1.08,0,1.9-1.38,1.9-2.62a1.32,1.32,0,0,0-1.25-1.49c-1.14,0-1.9,1.4-1.9,2.62,0,.87.49,1.49,1.24,1.49Z"/><path class="cls-1" d="M317.39,103l.7-3.77c.12-.6.2-1.11.26-1.55h.82l-.14,1h0a2.36,2.36,0,0,1,2-1.17A1.31,1.31,0,0,1,322.37,99a4.55,4.55,0,0,1-.1.86l-.59,3.11h-.9l.58-3.08a4.73,4.73,0,0,0,.07-.68c0-.53-.21-.93-.84-.93a2.37,2.37,0,0,0-1.82,2.11l-.48,2.58Z"/><path class="cls-1" d="M327.62,103a12.3,12.3,0,0,1,.12-1.37h0a2.32,2.32,0,0,1-2.07,1.49,1.57,1.57,0,0,1-1.53-1.76,3.71,3.71,0,0,1,3.67-3.81,5.36,5.36,0,0,1,1.43.2l-.54,2.79a11.77,11.77,0,0,0-.21,2.46Zm.58-4.64a1.8,1.8,0,0,0-.63-.08,2.82,2.82,0,0,0-2.5,2.92c0,.59.2,1.17.9,1.17s1.67-1,1.92-2.41Z"/><path class="cls-1" d="M330.65,103l1.49-7.81h.91L331.57,103Z"/><path class="cls-1" d="M334,103l1-5.32h.91l-1,5.32Zm1.7-6.3a.55.55,0,0,1-.54-.6.65.65,0,0,1,.63-.65.57.57,0,0,1,.57.6.64.64,0,0,1-.65.65Z"/><path class="cls-1" d="M337.39,102.09a2.37,2.37,0,0,0,1.14.33.92.92,0,0,0,1-.87c0-.42-.19-.68-.75-1a1.59,1.59,0,0,1-1-1.35,1.76,1.76,0,0,1,1.93-1.66,2.17,2.17,0,0,1,1.1.27l-.25.69a1.87,1.87,0,0,0-.91-.24.87.87,0,0,0-1,.8c0,.39.25.63.74.89a1.68,1.68,0,0,1,1,1.41,1.81,1.81,0,0,1-2,1.75,2.39,2.39,0,0,1-1.32-.36Z"/><path class="cls-1" d="M342.26,103l.71-3.77c.11-.6.19-1.11.25-1.55h.8l-.14,1h0a2.24,2.24,0,0,1,1.87-1.13A1.16,1.16,0,0,1,347,98.74a2.3,2.3,0,0,1,2-1.19,1.28,1.28,0,0,1,1.3,1.4,6.09,6.09,0,0,1-.09.9l-.6,3.15h-.89l.58-3.07a3.84,3.84,0,0,0,.07-.69c0-.56-.21-.93-.8-.93s-1.45.77-1.67,2l-.51,2.73h-.88l.6-3.12a3.93,3.93,0,0,0,.06-.65c0-.45-.12-.92-.79-.92s-1.5.88-1.71,2l-.49,2.67Z"/><path class="cls-1" d="M352.5,103.12a.62.62,0,0,1-.61-.65.71.71,0,0,1,.7-.74.61.61,0,0,1,.61.66.69.69,0,0,1-.69.73Z"/><rect class="cls-1" x="44.52" width="32.06" height="43.83"/><rect class="cls-2" x="11.12" width="32.06" height="43.83"/><path class="cls-2" d="M44.52,89A32.71,32.71,0,0,0,76.58,56.26V45.16H44.52Z"/><path class="cls-1" d="M11.12,56.26A32.72,32.72,0,0,0,43.18,89V45.16H11.12Z"/><path class="cls-1" d="M95.84,48.24c0-2.71,0-5.84,0-6.9,0-.66-.1-.81-.46-.81H93c-4.37,0-5.58.28-5.58,2.37v2.23c0,.48-.2.6-.46.6s-.38-.49-.34-1a48.53,48.53,0,0,0-.06-4.87c0-.39.13-.59.7-.59,1.44,0,3.65.32,10,.32,5.86,0,9.79-.32,10.6-.32.54,0,.69.18.68.65,0,1.29-.18,3.45-.08,4.92,0,.62-.11.89-.32.89s-.46-.05-.46-.63V42.77c0-1.83-1.41-2.24-5.64-2.24H99.75c-.34,0-.4.1-.4.81,0,1.41-.07,4.37-.07,6.9v4.25a76.53,76.53,0,0,0,.22,8.23c.17,1.42.53,1.93,2.9,1.93.59,0,.84.06.84.33s-.31.4-.91.4c-1.28,0-3.3-.25-5-.25s-3.36.25-4.84.25c-.48,0-.73-.09-.73-.34s.2-.39.78-.39c2.48,0,2.94-.42,3.07-2.1s.22-4.54.22-7.53Z"/><path class="cls-1" d="M114.28,49.2c0-3.61-.1-6.36-.22-7.66-.08-1-.48-1.46-2.53-1.46-.51,0-.84-.08-.84-.38s.21-.35.65-.35c.75,0,3.26.25,4.66.25,2.13,0,3.57-.25,4.59-.25.51,0,.73.12.73.35s-.23.38-.89.38c-2.1,0-2.38.39-2.5,1.67-.21,2.14-.21,6.15-.18,8.25.35.1,2.75.14,6.47.14A66.6,66.6,0,0,0,131,50c0-2.08,0-6.47-.21-8.44-.12-1.05-.44-1.48-2.55-1.48-.57,0-.86-.1-.86-.34s.26-.39.61-.39c1.14,0,2.7.25,4.74.25s3.7-.25,4.6-.25c.39,0,.68.11.68.34s-.32.39-1,.39c-1.6,0-2.12.31-2.24,1.37s-.27,3.94-.27,7.75v3.27c0,2.36.06,6.81.28,8.68.11,1,.57,1.47,2.55,1.47.61,0,.77.15.77.39s-.24.37-.77.37c-1,0-3.28-.25-4.66-.25s-3.23.25-4.35.25c-.52,0-.83-.1-.83-.36s.22-.37.79-.37c1.92,0,2.35-.46,2.46-1.48a83.25,83.25,0,0,0,.26-9.8c-.46-.06-2.35-.12-6.71-.12-3.86,0-6.15.08-6.49.12,0,1.49,0,7.29.3,9.79.13,1.08.72,1.47,2.63,1.47.5,0,.72.13.72.39s-.32.36-.92.36c-1.59,0-3.14-.25-4.47-.25s-4.13.25-4.74.25c-.38,0-.59-.15-.59-.34s.15-.41.86-.41c1.75,0,2.34-.5,2.49-1.48.22-1.44.25-6.32.25-8.62Z"/><path class="cls-1" d="M144.09,49.33c0-3.81-.09-6.77-.23-7.81s-.59-1.44-2.62-1.44c-.54,0-.88,0-.88-.35s.28-.41.83-.38c1,0,3.19.25,4.58.25,2.1,0,7.33-.29,10.46-.29,1.06,0,1.2.28,1.18.91-.11,1.38-.2,3.35-.19,4.52,0,.43-.11.77-.37.77s-.38-.16-.38-.59,0-1.57,0-2.24c0-1.52-1.05-2.25-5.86-2.25-.69,0-1.44,0-2.1.08s-.72.2-.8.68c-.16.84-.21,4.15-.21,8.38v1c1.18.06,6.63.08,8.71-.54.32-.11.48.09.34.26a2.89,2.89,0,0,1-2.91,1.57c-2.21,0-5.17-.1-6.13-.12v.76a54.52,54.52,0,0,0,.4,8.72c.21.9.91,1.16,3,1.14,3.09,0,4.68-.33,5.88-1,1-.59,1.53-1.59,2-4,.08-.48.27-.64.52-.64s.28.22.27.56a23.9,23.9,0,0,1-1.18,4.49c-.52,1.33-1,1.61-3.57,1.61-3,0-7.87-.26-9.16-.26-1.71,0-3.57.25-4.52.25-.52,0-.79-.09-.79-.35s.27-.38.91-.38c1.64,0,2.32-.37,2.51-1.49a75.19,75.19,0,0,0,.34-8.49Z"/><path class="cls-1" d="M173.84,48.35a45.54,45.54,0,0,0-.33-7.15c-.16-.77-1-1.1-2.6-1.1-.6,0-.91-.06-.91-.33s.37-.42.82-.42c.92,0,2.9.25,4.6.25,1.54,0,4.59-.33,6.51-.33,5.53,0,7.77,1.86,7.77,5.47,0,2.74-2,5.12-5.86,6.65a83.73,83.73,0,0,0,10.56,12.8c7.69,7.55,13.89,9.66,18.39,9.66a12.44,12.44,0,0,0,7.17-2c.22-.14.51-.18.51.07s-.18.47-.67.83a16.12,16.12,0,0,1-9.34,2.89c-5.88,0-11.06-2.31-16.22-6.93-4.94-4.44-7.88-8.45-12.53-14.88-.89-1.23-1.48-1.57-2.39-1.54-.45,0-.73-.17-.73-.33s.31-.38.89-.4c3.93,0,6.35-1.83,6.35-5.78s-2.25-5.55-5.88-5.55c-1.51,0-2.26.28-2.39,1s-.24,2.33-.24,8.67v3.42a51.61,51.61,0,0,0,.44,8c.21,1.09,1.1,1.41,2.4,1.41.64,0,.88.13.88.39s-.25.34-.81.34c-1.1,0-3.38-.25-4.64-.25-1.41,0-3.66.25-4.51.25-.59,0-.83-.1-.83-.34s.22-.39.66-.39c1.69,0,2.5-.33,2.69-1.35a57.1,57.1,0,0,0,.24-7.55Z"/><path class="cls-1" d="M209.61,38.79c7.07,0,12.42,4.38,12.42,12,0,6.56-4.26,13.18-13.38,13.18-7.28,0-12.58-4.17-12.58-12.27,0-6.61,5-12.88,13.5-12.88Zm-1,1c-5.29,0-8.58,4.62-8.58,11.07,0,8.21,4.29,12,9.39,12,6.15,0,8.69-5.21,8.69-11.29,0-6.37-2.94-11.82-9.47-11.82Z"/><path class="cls-1" d="M228.26,49.68a55,55,0,0,0-.31-8.22c-.18-1-1-1.36-2.64-1.36-.58,0-.95-.09-.95-.37s.33-.38.8-.38c.84,0,2.63.25,4.49.25,2,0,4.74-.36,7.66-.36,7.85,0,13.58,3.42,13.58,11.46,0,8.36-6.44,12.82-14.39,12.82-3.07,0-5.05-.39-6.62-.39-1.24,0-3.94.25-4.79.25-.59,0-.84-.09-.84-.38s.27-.35.73-.35c2.07,0,2.75-.4,3-1.78s.28-6.69.28-9Zm3.41,3.66c0,4.66.2,6.78.5,7.56.4,1.19,2.14,1.59,4.84,1.59,5.38,0,9.93-3.34,9.93-11,0-8.62-5.1-11.31-11.33-11.31-2.41,0-3.27.18-3.53.89s-.41,3.14-.41,8.55Z"/><path class="cls-1" d="M276.43,59.84c0,1.91.13,2.14.78,2.07.33,0,.47.07.47.3s-.12.27-.55.4a39.49,39.49,0,0,1-9.28,1.33c-7.12,0-14.23-2.91-14.23-12.21,0-6.27,4.26-12.89,15.27-12.89A20.43,20.43,0,0,1,276.08,40a.88.88,0,0,1,.64.9c0,.68-.23,3.69-.16,5.68,0,.39-.16.73-.37.73s-.45-.22-.45-.77.05-1.26.05-2.24c0-3-3.64-4.38-7.89-4.38-7.51,0-10.3,5.34-10.3,11.25,0,7.92,5.44,11.76,11.26,11.76a7.68,7.68,0,0,0,3.24-.5c.54-.28.78-.73.78-2.55V58.18c0-2.58-.52-2.85-4.24-2.85-.71,0-1-.17-1-.46s.24-.39.74-.39c1.59,0,3,.3,5.84.3,2,0,3.24-.23,4.2-.23.51,0,.74.13.74.37s-.29.4-.84.41c-1.76,0-1.87.35-1.87,2.31Z"/><path class="cls-1" d="M284.71,49.33c0-3.81-.09-6.77-.23-7.81s-.59-1.44-2.62-1.44c-.54,0-.88,0-.88-.35s.28-.41.83-.38c1,0,3.19.25,4.58.25,2.1,0,7.33-.29,10.46-.29,1.06,0,1.2.28,1.18.91-.1,1.38-.2,3.35-.19,4.52,0,.43-.11.77-.37.77s-.37-.16-.37-.59,0-1.57,0-2.24c0-1.52-1.05-2.25-5.86-2.25-.69,0-1.44,0-2.1.08s-.72.2-.8.68c-.16.84-.21,4.15-.21,8.38v1c1.18.06,6.63.08,8.71-.54.32-.11.48.09.34.26a2.88,2.88,0,0,1-2.91,1.57c-2.21,0-5.17-.1-6.13-.12v.76a54.52,54.52,0,0,0,.4,8.72c.21.9.91,1.16,3,1.14,3.09,0,4.69-.33,5.88-1,1-.59,1.53-1.59,2-4,.08-.48.27-.64.52-.64s.28.22.27.56A23.9,23.9,0,0,1,299,61.78c-.52,1.33-1,1.61-3.57,1.61-3,0-7.87-.26-9.16-.26-1.7,0-3.57.25-4.52.25-.52,0-.79-.09-.79-.35s.27-.38.91-.38c1.64,0,2.32-.37,2.51-1.49a75.19,75.19,0,0,0,.34-8.49Z"/><path class="cls-1" d="M305.45,48.35a46.93,46.93,0,0,0-.33-7.15c-.16-.77-1-1.1-2.6-1.1-.61,0-.91-.06-.91-.33s.37-.42.82-.42c.92,0,2.9.25,4.6.25,1.54,0,4.58-.33,6.51-.33,5.53,0,7.77,1.84,7.77,5.52,0,3.52-3.38,5.63-5.67,6.51a46.48,46.48,0,0,0,7.17,9.37c1.86,1.69,2.74,2.1,4.4,2,.4,0,.68.06.68.31,0,.4-1.1.5-4,.52-2.68,0-4.19-.39-5.71-2.23-1.13-1.38-3.52-5.17-4.71-7.06-1-1.66-1.44-2-2.52-2-.5,0-.78-.09-.78-.35s.31-.38,1.37-.38c3.52,0,5.86-2.14,5.86-5.8s-2.24-5.5-5.87-5.5c-1.51,0-2.26.28-2.39,1s-.25,2.33-.25,8.67v3.42a51.08,51.08,0,0,0,.45,8c.21,1.09,1.1,1.41,2.4,1.41.64,0,.88.13.88.39s-.25.34-.81.34c-1.1,0-3.38-.25-4.64-.25s-3.66.25-4.51.25c-.59,0-.83-.1-.83-.34s.21-.39.66-.39c1.69,0,2.5-.33,2.69-1.35a57.1,57.1,0,0,0,.24-7.55Z"/><path class="cls-1" d="M336.23,38.79a10.42,10.42,0,0,1,4,.72c.39.17.49.38.44.84a42,42,0,0,0-.15,4.46c0,.45-.13.69-.37.69s-.49-.29-.45-.75.06-1,.06-1.5a2.71,2.71,0,0,0-.92-2.27,6.21,6.21,0,0,0-3.85-1.1c-3.06,0-4.91,1.59-4.91,4.71,0,1.81,1.18,3.09,2.91,4,1.21.62,3.29,1.41,4.82,2.07,2.62,1.09,4.24,2.51,4.24,5.55,0,4.82-4.6,7.77-10,7.77a12.54,12.54,0,0,1-4.44-.7c-.31-.12-.44-.28-.44-.53a49.62,49.62,0,0,0,0-5c0-.57.14-.86.42-.86s.42.14.42.69a12.06,12.06,0,0,0,.08,2.82c.35,1.36,2.85,2.32,5.27,2.32,3.34,0,5.52-1.69,5.52-5,0-2-1.36-3.26-4.13-4.4a44,44,0,0,1-4.61-2.15,5.25,5.25,0,0,1-3-4.85c0-4.52,4.18-7.57,9-7.57Z"/><path class="cls-1" d="M239.24,82c0,.37,0,.39-.18.49a7.7,7.7,0,0,1-3.24.6c-3.29,0-6.2-1.56-6.2-5.27A5,5,0,0,1,232,73.45a6.51,6.51,0,0,1,3.62-.87,16.93,16.93,0,0,1,2.38.21,7.12,7.12,0,0,0,1.06.15c.16,0,.19.07.19.16a17.28,17.28,0,0,0-.1,2.21c0,.21,0,.28-.15.28s-.12-.07-.13-.18a1.86,1.86,0,0,0-.46-1.11,4.27,4.27,0,0,0-3-1,3.86,3.86,0,0,0-2.66.83,4,4,0,0,0-1.24,3.3c0,2.88,1.84,5.05,4.68,5.05a2.92,2.92,0,0,0,1.14-.15c.2-.09.25-.27.25-.5V80.52c0-.67,0-1.18,0-1.59s-.13-.67-.58-.76a2.49,2.49,0,0,0-.52,0c-.12,0-.2,0-.2-.11s.09-.14.28-.14c.7,0,1.54.05,2,.05s1.13-.05,1.57-.05c.17,0,.27,0,.27.14s-.08.11-.18.11a1.86,1.86,0,0,0-.36,0c-.36.06-.5.29-.51.76s0,.94,0,1.62Z"/><path class="cls-1" d="M245.94,76.66c0-2,0-2.42,0-2.85s-.13-.67-.57-.76a2.6,2.6,0,0,0-.53,0c-.15,0-.23,0-.23-.12s.1-.12.3-.12c.71,0,1.56,0,1.84,0l1.9,0a4.36,4.36,0,0,1,2.47.57,2.35,2.35,0,0,1,.91,1.84c0,1-.41,1.91-1.77,3,1.19,1.51,2.12,2.71,2.91,3.54a2.69,2.69,0,0,0,1.51.91,1.87,1.87,0,0,0,.37,0c.11,0,.17,0,.17.11s-.1.13-.26.13h-1.28a2.7,2.7,0,0,1-1.43-.25,6.4,6.4,0,0,1-1.84-2c-.54-.74-1.16-1.65-1.33-1.85a.29.29,0,0,0-.25-.09l-1.17,0c-.06,0-.1,0-.1.11V79c0,1.25,0,2.32.06,2.88,0,.39.13.69.53.74a5.42,5.42,0,0,0,.66.05c.1,0,.16,0,.16.11s-.1.13-.27.13c-.78,0-1.78,0-2,0s-1.1,0-1.64,0c-.17,0-.26,0-.26-.13s.05-.11.21-.11a2,2,0,0,0,.48-.05c.27,0,.34-.35.39-.74.07-.56.07-1.63.07-2.86Zm1.59,1.06c0,.15,0,.21.12.25a3.65,3.65,0,0,0,1,.13,1.3,1.3,0,0,0,1-.23,2.33,2.33,0,0,0,.8-2,2.15,2.15,0,0,0-2.06-2.46,3,3,0,0,0-.71,0c-.1,0-.12.08-.12.19Z"/><path class="cls-1" d="M257.51,77.84a5.17,5.17,0,0,1,5.55-5.26c3.35,0,5.43,2,5.43,5a5.31,5.31,0,0,1-5.56,5.51A5.12,5.12,0,0,1,257.51,77.84Zm9.1.26c0-3-1.74-4.88-3.94-4.88-1.54,0-3.3.86-3.3,4.21,0,2.79,1.54,5,4.12,5C264.43,82.44,266.61,82,266.61,78.1Z"/><path class="cls-1" d="M273.81,76.66c0-2,0-2.42,0-2.85s-.13-.67-.57-.76a2.6,2.6,0,0,0-.53,0c-.15,0-.23,0-.23-.12s.1-.12.3-.12c.71,0,1.56,0,2,0s1.17,0,1.65,0c.2,0,.3,0,.3.12s-.08.12-.22.12a1.91,1.91,0,0,0-.39,0c-.36.07-.47.29-.49.76s0,.81,0,2.85v1.88c0,1.95.39,2.77,1.05,3.31a2.46,2.46,0,0,0,1.68.55,2.62,2.62,0,0,0,1.85-.73c.74-.73.78-1.94.78-3.33V76.66c0-2,0-2.42,0-2.85s-.13-.67-.57-.76a2.43,2.43,0,0,0-.49,0c-.15,0-.23,0-.23-.12s.1-.12.29-.12c.68,0,1.53,0,1.54,0,.16,0,1,0,1.53,0,.19,0,.29,0,.29.12s-.08.12-.25.12a1.91,1.91,0,0,0-.39,0c-.36.07-.47.29-.49.76s0,.81,0,2.85V78.1c0,1.49-.15,3.08-1.28,4a4,4,0,0,1-2.79,1,4.34,4.34,0,0,1-3-.92c-.69-.62-1.2-1.62-1.2-3.57Z"/><path class="cls-1" d="M288.79,76.66c0-2,0-2.42,0-2.85s-.14-.67-.58-.76a2.6,2.6,0,0,0-.53,0c-.14,0-.23,0-.23-.12s.1-.12.3-.12c.71,0,1.56,0,1.94,0,.55,0,1.33,0,1.94,0a3.28,3.28,0,0,1,2.5.76,2.32,2.32,0,0,1,.67,1.6,3.15,3.15,0,0,1-3.3,3.25h-.28c-.07,0-.16,0-.16-.12s.09-.15.37-.15a2.12,2.12,0,0,0,1.8-2.22,2.58,2.58,0,0,0-.79-2,2,2,0,0,0-1.34-.53,1.88,1.88,0,0,0-.53.06c-.07,0-.11.1-.11.25V79c0,1.23,0,2.3.07,2.87,0,.38.12.68.53.73a4.94,4.94,0,0,0,.68.05c.15,0,.22,0,.22.11s-.11.13-.26.13c-.89,0-1.73,0-2.08,0s-1.16,0-1.7,0c-.17,0-.26,0-.26-.13s.05-.11.21-.11a2.17,2.17,0,0,0,.49-.05c.26,0,.33-.35.39-.74.06-.56.06-1.63.06-2.86Z"/><path class="cls-1" d="M298.47,81c.12,0,.16.07.33.34a1.32,1.32,0,0,1,.3.7,2,2,0,0,1-.18.64,7.63,7.63,0,0,1-1.06,1.79c-.09.08-.15.16-.23.16s-.1-.07-.1-.13.08-.17.1-.23A2.31,2.31,0,0,0,298,83.1c0-.77-.56-1-.56-1.17A1.12,1.12,0,0,1,298.47,81Z"/><path class="cls-1" d="M313.79,79c0,1.72,0,2.64.28,2.89s.57.29,1.62.29c.72,0,1.24,0,1.58-.37a1.64,1.64,0,0,0,.34-.81c0-.12,0-.2.15-.2s.11.07.11.23a10.3,10.3,0,0,1-.2,1.54c-.08.3-.15.36-.85.36-1,0-1.66,0-2.27,0s-1.09,0-1.64,0c-.15,0-.44,0-.76,0l-.93,0c-.18,0-.27,0-.27-.13s.05-.11.21-.11a2,2,0,0,0,.49-.05c.27,0,.33-.35.39-.74.07-.56.07-1.63.07-2.86V76.66c0-2,0-2.42,0-2.85s-.14-.67-.58-.76a1.83,1.83,0,0,0-.44,0c-.15,0-.23,0-.23-.12s.09-.12.29-.12c.64,0,1.48,0,1.85,0s1.3,0,1.82,0c.19,0,.28,0,.28.12s-.08.12-.24.12a3.12,3.12,0,0,0-.52,0c-.36.07-.47.29-.5.76s0,.81,0,2.85Z"/><path class="cls-1" d="M324.87,79c0,1.72,0,2.64.28,2.89s.58.29,1.63.29c.71,0,1.23,0,1.57-.37a1.75,1.75,0,0,0,.35-.81c0-.12,0-.2.15-.2s.1.07.1.23a10.3,10.3,0,0,1-.2,1.54c-.08.3-.14.36-.84.36-1,0-1.67,0-2.27,0s-1.09,0-1.64,0c-.15,0-.45,0-.77,0l-.93,0c-.17,0-.27,0-.27-.13s.06-.11.22-.11a2,2,0,0,0,.48-.05c.27,0,.34-.35.39-.74.07-.56.07-1.63.07-2.86V76.66c0-2,0-2.42,0-2.85s-.13-.67-.57-.76a1.87,1.87,0,0,0-.45,0c-.15,0-.23,0-.23-.12s.1-.12.3-.12c.63,0,1.48,0,1.84,0s1.3,0,1.83,0c.19,0,.28,0,.28.12s-.08.12-.24.12a3.32,3.32,0,0,0-.53,0c-.36.07-.47.29-.49.76s0,.81,0,2.85Z"/><path class="cls-1" d="M334.41,81.65a5.31,5.31,0,0,1-.09-7.65,5.87,5.87,0,0,1,4.24-1.42,13.41,13.41,0,0,1,1.95.13c.51.07.94.19,1.34.23.15,0,.21.08.21.16s0,.27-.07.74,0,1.18,0,1.45,0,.31-.16.31-.14-.11-.14-.29a1.88,1.88,0,0,0-.52-1.24,4,4,0,0,0-2.73-.83,3.47,3.47,0,0,0-2.52.83,4.46,4.46,0,0,0-1.24,3.48,4.51,4.51,0,0,0,4.23,4.78c1.2,0,1.92-.13,2.46-.75a2.24,2.24,0,0,0,.46-.89c0-.21.06-.27.17-.27s.12.1.12.21a13.07,13.07,0,0,1-.29,1.78.47.47,0,0,1-.35.39,7.65,7.65,0,0,1-2.42.31A6.72,6.72,0,0,1,334.41,81.65Z"/><path class="cls-3" d="M35.55,6.54c-2.95.21-5.74.4-7.6.4-2.53,0-5.29-.21-7.72-.4-1.81-.14-3.38-.27-4.49-.27-3.09,0-4.19,1.69-4.19,3.12,0,2.86,3.21,2.86,4.41,2.86,1.41,0,4.71.13,4.95,1.33.31,1.52.83,5.94.83,18.58V43.83H35v-.62c.07.07.12.15.19.22a3.51,3.51,0,0,0,.53.4h7.49V38.18l-.32,0a25.75,25.75,0,0,1-4.16.35c-1.81.08-3.05.51-3.73,1.28V36c0-14.08.18-20.62.61-22.59.07-.38,1.07-.94,4.4-.94a26,26,0,0,1,3,.17h.24V6.11h-.06C40.77,6.18,38.11,6.37,35.55,6.54ZM36.12,66C35.6,63.28,35,56.16,35,45.16H21.74v1.36c0,10.86-.09,16.89-.59,19.67C21,67,20.78,68.13,16,68.13a4.3,4.3,0,0,0-2.37.61,32.63,32.63,0,0,0,2.81,5.33h0c1.06,0,2.77-.13,4.75-.27,2.43-.19,5.2-.39,7.23-.39,1.66,0,4.08.17,6.42.34s4.43.32,5.91.32a6.42,6.42,0,0,0,2.46-.4V68.6a6.37,6.37,0,0,0-2.66-.47C36.53,68.13,36.29,66.86,36.12,66ZM56.21,45.16H44.52v4.69C52.69,61.11,59.37,70.18,67.44,78.7l.13.1a32.51,32.51,0,0,0,7-11.26A211.6,211.6,0,0,1,56.21,45.16Zm-1.48-1.73a1.86,1.86,0,0,0-.31-.76l-1.09-1.56c9.4-4.36,14.54-10.87,14.54-18.52,0-11.12-7.41-16.52-22.63-16.52h-.72v6.85c6.09,1.27,9,5.29,9,12.28s-3,11.08-9,12.65v6H55.21A2,2,0,0,0,54.73,43.43ZM43.18,48V45.16H40.66C40.75,45.23,43.13,47.92,43.18,48Z"/><path class="cls-2" d="M40.52,70.13c-3.45,0-5.8-.84-6.36-3.72S33,56.57,33,45.16H23.74v1.36c0,11.3-.1,17.13-.62,20-.52,2.72-2.66,3.59-7.16,3.59a1.9,1.9,0,0,0-1.52.49c.22.45.46.91.7,1.35a6.26,6.26,0,0,0,1.27.1c2.26,0,8.24-.66,12-.66,3.35,0,9.41.66,12.33.66,1.48,0,2.14-.21,2.14-.91S42.23,70.13,40.52,70.13Z"/><path class="cls-2" d="M15.74,8.27c-1.21,0-2.19.36-2.19,1.12s.81.86,2.41.86c4.22,0,6.49.88,6.91,2.94.49,2.41.87,8.2.87,19V43.83H33V36c0-16.84.26-21.22.66-23S36,10.48,40,10.48a25.14,25.14,0,0,1,3.2.19V8.1c-5,.17-11.66.84-15.23.84C23.43,8.94,18.18,8.27,15.74,8.27Z"/><path class="cls-2" d="M53.74,45.16H44.52v1.29l.11.14c9.26,12.78,16,22,24.26,30.73a33,33,0,0,0,4.86-7.74A218.44,218.44,0,0,1,53.74,45.16Z"/><path class="cls-2" d="M36.37,41.61c0,.43.72.91,1.92.88a5.34,5.34,0,0,1,3.93,1.34h1V40.18a28.46,28.46,0,0,1-4.47.37C37.17,40.62,36.37,40.87,36.37,41.61Z"/><path class="cls-2" d="M50.3,40.25c10.22-4.08,15.57-10.41,15.57-17.66,0-9.59-6-14.52-20.63-14.52h-.72v2.81c6.93,1.29,11,5.81,11,14.32s-4.09,13.11-11,14.72v3.91h8.27C51.93,42.61,51.1,41.41,50.3,40.25Z"/></g></g></svg>