<svg xmlns="http://www.w3.org/2000/svg" viewBox="0 0 330.96 88.97"><defs><style>.cls-1{fill:#fcbd2a;}.cls-2{fill:#27387d;}.cls-3{fill:#fff;}</style></defs><title>Logo-noSubtitle</title><g id="Layer_2" data-name="Layer 2"><g id="Layer_1-2" data-name="Layer 1"><rect class="cls-1" x="33.4" width="32.06" height="43.83"/><rect class="cls-2" width="32.06" height="43.83"/><path class="cls-2" d="M33.4,89A32.71,32.71,0,0,0,65.46,56.26V45.16H33.4Z"/><path class="cls-1" d="M0,56.26A32.71,32.71,0,0,0,32.06,89V45.16H0Z"/><path class="cls-2" d="M84.72,48.24c0-2.71,0-5.84,0-6.9,0-.66-.1-.81-.46-.81H81.91c-4.37,0-5.58.28-5.58,2.37v2.23c0,.48-.2.6-.46.6s-.38-.49-.34-1a48.53,48.53,0,0,0-.06-4.87c0-.39.13-.59.7-.59,1.44,0,3.65.32,10,.32,5.86,0,9.79-.32,10.6-.32.54,0,.69.18.68.65,0,1.29-.18,3.45-.08,4.92,0,.62-.11.89-.32.89s-.46-.05-.46-.63V42.77c0-1.83-1.41-2.24-5.64-2.24H88.63c-.34,0-.4.1-.4.81,0,1.41-.07,4.37-.07,6.9v4.25a76.53,76.53,0,0,0,.22,8.23c.17,1.42.53,1.93,2.9,1.93.59,0,.84.06.84.33s-.31.4-.91.4c-1.28,0-3.3-.25-5-.25s-3.36.25-4.84.25c-.48,0-.73-.09-.73-.34s.2-.39.78-.39c2.48,0,2.94-.42,3.07-2.1s.22-4.54.22-7.53Z"/><path class="cls-2" d="M103.16,49.2c0-3.61-.1-6.36-.22-7.66-.08-1-.48-1.46-2.53-1.46-.51,0-.84-.08-.84-.38s.21-.35.65-.35c.75,0,3.26.25,4.66.25,2.13,0,3.57-.25,4.59-.25.51,0,.73.12.73.35s-.23.38-.89.38c-2.1,0-2.38.39-2.5,1.67-.21,2.14-.21,6.15-.18,8.25.35.1,2.75.14,6.47.14a66.6,66.6,0,0,0,6.74-.14c0-2.08,0-6.47-.21-8.44-.12-1.05-.44-1.48-2.55-1.48-.57,0-.86-.1-.86-.34s.26-.39.61-.39c1.14,0,2.7.25,4.74.25s3.7-.25,4.6-.25c.39,0,.68.11.68.34s-.32.39-1,.39c-1.6,0-2.12.31-2.24,1.37s-.27,3.94-.27,7.75v3.27c0,2.36.06,6.81.28,8.68.11,1,.57,1.47,2.55,1.47.61,0,.77.15.77.39s-.24.37-.77.37c-1,0-3.28-.25-4.66-.25s-3.23.25-4.35.25c-.52,0-.83-.1-.83-.36s.22-.37.79-.37c1.92,0,2.35-.46,2.46-1.48a83.25,83.25,0,0,0,.26-9.8c-.46-.06-2.35-.12-6.71-.12-3.86,0-6.15.08-6.49.12,0,1.49,0,7.29.3,9.79.13,1.08.72,1.47,2.63,1.47.5,0,.72.13.72.39s-.32.36-.92.36c-1.59,0-3.14-.25-4.47-.25s-4.13.25-4.74.25c-.38,0-.59-.15-.59-.34s.15-.41.86-.41c1.75,0,2.34-.5,2.49-1.48.22-1.44.25-6.32.25-8.62Z"/><path class="cls-2" d="M133,49.33c0-3.81-.09-6.77-.23-7.81s-.59-1.44-2.62-1.44c-.54,0-.88,0-.88-.35s.28-.41.83-.38c1,0,3.19.25,4.58.25,2.1,0,7.33-.29,10.46-.29,1.06,0,1.2.28,1.18.91-.11,1.38-.2,3.35-.19,4.52,0,.43-.11.77-.37.77s-.38-.16-.38-.59,0-1.57,0-2.24c0-1.52-1-2.25-5.86-2.25-.69,0-1.44,0-2.1.08s-.72.2-.8.68c-.16.84-.21,4.15-.21,8.38v1c1.18.06,6.63.08,8.71-.54.32-.11.48.09.34.26a2.89,2.89,0,0,1-2.91,1.57c-2.21,0-5.17-.1-6.13-.12v.76a54.52,54.52,0,0,0,.4,8.72c.21.9.91,1.16,3,1.14,3.09,0,4.68-.33,5.88-1,1-.59,1.53-1.59,2-4,.08-.48.27-.64.52-.64s.28.22.27.56a23.9,23.9,0,0,1-1.18,4.49c-.52,1.33-1,1.61-3.57,1.61-3,0-7.87-.26-9.16-.26-1.71,0-3.57.25-4.52.25-.52,0-.79-.09-.79-.35s.27-.38.91-.38c1.64,0,2.32-.37,2.51-1.49a75.19,75.19,0,0,0,.34-8.49Z"/><path class="cls-1" d="M162.72,48.35a45.54,45.54,0,0,0-.33-7.15c-.16-.77-1-1.1-2.6-1.1-.6,0-.91-.06-.91-.33s.37-.42.82-.42c.92,0,2.9.25,4.6.25,1.54,0,4.59-.33,6.51-.33,5.53,0,7.77,1.86,7.77,5.47,0,2.74-2,5.12-5.86,6.65a83.73,83.73,0,0,0,10.56,12.8c7.69,7.55,13.89,9.66,18.39,9.66a12.44,12.44,0,0,0,7.17-2c.22-.14.51-.18.51.07s-.18.47-.67.83a16.12,16.12,0,0,1-9.34,2.89c-5.88,0-11.06-2.31-16.22-6.93-4.94-4.44-7.88-8.45-12.53-14.88-.89-1.23-1.48-1.57-2.39-1.54-.45,0-.73-.17-.73-.33s.31-.38.89-.4c3.93,0,6.35-1.83,6.35-5.78s-2.25-5.55-5.88-5.55c-1.51,0-2.26.28-2.39,1s-.24,2.33-.24,8.67v3.42a51.61,51.61,0,0,0,.44,8c.21,1.09,1.1,1.41,2.4,1.41.64,0,.88.13.88.39s-.25.34-.81.34c-1.1,0-3.38-.25-4.64-.25-1.41,0-3.66.25-4.51.25-.59,0-.83-.1-.83-.34s.22-.39.66-.39c1.69,0,2.5-.33,2.69-1.35a57.1,57.1,0,0,0,.24-7.55Z"/><path class="cls-1" d="M198.49,38.79c7.07,0,12.42,4.38,12.42,12,0,6.56-4.26,13.18-13.38,13.18-7.28,0-12.58-4.17-12.58-12.27,0-6.61,5-12.88,13.5-12.88Zm-1,1c-5.29,0-8.58,4.62-8.58,11.07,0,8.21,4.29,12,9.39,12,6.15,0,8.69-5.21,8.69-11.29,0-6.37-2.94-11.82-9.47-11.82Z"/><path class="cls-1" d="M217.14,49.68a55,55,0,0,0-.31-8.22c-.18-1-1-1.36-2.64-1.36-.58,0-.95-.09-.95-.37s.33-.38.8-.38c.84,0,2.63.25,4.49.25,2,0,4.74-.36,7.66-.36,7.85,0,13.58,3.42,13.58,11.46,0,8.36-6.44,12.82-14.39,12.82-3.07,0-5-.39-6.62-.39-1.24,0-3.94.25-4.79.25-.59,0-.84-.09-.84-.38s.27-.35.73-.35c2.07,0,2.75-.4,3-1.78s.28-6.69.28-9Zm3.41,3.66c0,4.66.2,6.78.5,7.56.4,1.19,2.14,1.59,4.84,1.59,5.38,0,9.93-3.34,9.93-11,0-8.62-5.1-11.31-11.33-11.31-2.41,0-3.27.18-3.53.89s-.41,3.14-.41,8.55Z"/><path class="cls-1" d="M265.31,59.84c0,1.91.13,2.14.78,2.07.33,0,.47.07.47.3s-.12.27-.55.4a39.49,39.49,0,0,1-9.28,1.33c-7.12,0-14.23-2.91-14.23-12.21,0-6.27,4.26-12.89,15.27-12.89A20.43,20.43,0,0,1,265,40a.88.88,0,0,1,.64.9c0,.68-.23,3.69-.16,5.68,0,.39-.16.73-.37.73s-.45-.22-.45-.77.05-1.26.05-2.24c0-3-3.64-4.38-7.89-4.38-7.51,0-10.3,5.34-10.3,11.25,0,7.92,5.44,11.76,11.26,11.76a7.68,7.68,0,0,0,3.24-.5c.54-.28.78-.73.78-2.55V58.18c0-2.58-.52-2.85-4.24-2.85-.71,0-1-.17-1-.46s.24-.39.74-.39c1.59,0,3,.3,5.84.3,2,0,3.24-.23,4.2-.23.51,0,.74.13.74.37s-.29.4-.84.41c-1.76,0-1.87.35-1.87,2.31Z"/><path class="cls-1" d="M273.59,49.33c0-3.81-.09-6.77-.23-7.81s-.59-1.44-2.62-1.44c-.54,0-.88,0-.88-.35s.28-.41.83-.38c1,0,3.19.25,4.58.25,2.1,0,7.33-.29,10.46-.29,1.06,0,1.2.28,1.18.91-.1,1.38-.2,3.35-.19,4.52,0,.43-.11.77-.37.77s-.37-.16-.37-.59,0-1.57,0-2.24c0-1.52-1.05-2.25-5.86-2.25-.69,0-1.44,0-2.1.08s-.72.2-.8.68c-.16.84-.21,4.15-.21,8.38v1c1.18.06,6.63.08,8.71-.54.32-.11.48.09.34.26a2.88,2.88,0,0,1-2.91,1.57c-2.21,0-5.17-.1-6.13-.12v.76a54.52,54.52,0,0,0,.4,8.72c.21.9.91,1.16,3,1.14,3.09,0,4.69-.33,5.88-1,1-.59,1.53-1.59,2-4,.08-.48.27-.64.52-.64s.28.22.27.56a23.9,23.9,0,0,1-1.18,4.49c-.52,1.33-1,1.61-3.57,1.61-3,0-7.87-.26-9.16-.26-1.7,0-3.57.25-4.52.25-.52,0-.79-.09-.79-.35s.27-.38.91-.38c1.64,0,2.32-.37,2.51-1.49a75.19,75.19,0,0,0,.34-8.49Z"/><path class="cls-1" d="M294.33,48.35A46.93,46.93,0,0,0,294,41.2c-.16-.77-1-1.1-2.6-1.1-.61,0-.91-.06-.91-.33s.37-.42.82-.42c.92,0,2.9.25,4.6.25,1.54,0,4.58-.33,6.51-.33,5.53,0,7.77,1.84,7.77,5.52,0,3.52-3.38,5.63-5.67,6.51a46.48,46.48,0,0,0,7.17,9.37c1.86,1.69,2.74,2.1,4.4,2,.4,0,.68.06.68.31,0,.4-1.1.5-4,.52-2.68,0-4.19-.39-5.71-2.23-1.13-1.38-3.52-5.17-4.71-7.06-1-1.66-1.44-2-2.52-2-.5,0-.78-.09-.78-.35s.31-.38,1.37-.38c3.52,0,5.86-2.14,5.86-5.8s-2.24-5.5-5.87-5.5c-1.51,0-2.26.28-2.39,1s-.25,2.33-.25,8.67v3.42a51.08,51.08,0,0,0,.45,8c.21,1.09,1.1,1.41,2.4,1.41.64,0,.88.13.88.39s-.25.34-.81.34c-1.1,0-3.38-.25-4.64-.25s-3.66.25-4.51.25c-.59,0-.83-.1-.83-.34s.21-.39.66-.39c1.69,0,2.5-.33,2.69-1.35a57.1,57.1,0,0,0,.24-7.55Z"/><path class="cls-1" d="M325.11,38.79a10.42,10.42,0,0,1,4,.72c.39.17.49.38.44.84a42,42,0,0,0-.15,4.46c0,.45-.13.69-.37.69s-.49-.29-.45-.75.06-1,.06-1.5a2.71,2.71,0,0,0-.92-2.27,6.21,6.21,0,0,0-3.85-1.1c-3.06,0-4.91,1.59-4.91,4.71,0,1.81,1.18,3.09,2.91,4,1.21.62,3.29,1.41,4.82,2.07,2.62,1.09,4.24,2.51,4.24,5.55,0,4.82-4.6,7.77-10,7.77a12.54,12.54,0,0,1-4.44-.7c-.31-.12-.44-.28-.44-.53a49.62,49.62,0,0,0,0-5c0-.57.14-.86.42-.86s.42.14.42.69a12.06,12.06,0,0,0,.08,2.82c.35,1.36,2.85,2.32,5.27,2.32,3.34,0,5.52-1.69,5.52-5,0-2-1.36-3.26-4.13-4.4a44,44,0,0,1-4.61-2.15,5.25,5.25,0,0,1-3-4.85c0-4.52,4.18-7.57,9-7.57Z"/><path class="cls-2" d="M228.12,82c0,.37,0,.39-.18.49a7.7,7.7,0,0,1-3.24.6c-3.29,0-6.2-1.56-6.2-5.27a5,5,0,0,1,2.33-4.39,6.51,6.51,0,0,1,3.62-.87,16.93,16.93,0,0,1,2.38.21,7.12,7.12,0,0,0,1.06.15c.16,0,.19.07.19.16a17.28,17.28,0,0,0-.1,2.21c0,.21,0,.28-.15.28s-.12-.07-.13-.18a1.86,1.86,0,0,0-.46-1.11,4.27,4.27,0,0,0-3-1,3.86,3.86,0,0,0-2.66.83,4,4,0,0,0-1.24,3.3c0,2.88,1.84,5.05,4.68,5.05a2.92,2.92,0,0,0,1.14-.15c.2-.09.25-.27.25-.5V80.52c0-.67,0-1.18,0-1.59s-.13-.67-.58-.76a2.49,2.49,0,0,0-.52,0c-.12,0-.2,0-.2-.11s.09-.14.28-.14c.7,0,1.54.05,2,.05s1.13-.05,1.57-.05c.17,0,.27,0,.27.14s-.08.11-.18.11a1.86,1.86,0,0,0-.36,0c-.36.06-.5.29-.51.76s0,.94,0,1.62Z"/><path class="cls-2" d="M234.82,76.66c0-2,0-2.42,0-2.85s-.13-.67-.57-.76a2.6,2.6,0,0,0-.53,0c-.15,0-.23,0-.23-.12s.1-.12.3-.12c.71,0,1.56,0,1.84,0l1.9,0a4.36,4.36,0,0,1,2.47.57,2.35,2.35,0,0,1,.91,1.84c0,1-.41,1.91-1.77,3,1.19,1.51,2.12,2.71,2.91,3.54a2.69,2.69,0,0,0,1.51.91,1.87,1.87,0,0,0,.37,0c.11,0,.17,0,.17.11s-.1.13-.26.13h-1.28a2.7,2.7,0,0,1-1.43-.25,6.4,6.4,0,0,1-1.84-2c-.54-.74-1.16-1.65-1.33-1.85a.29.29,0,0,0-.25-.09l-1.17,0c-.06,0-.1,0-.1.11V79c0,1.25,0,2.32.06,2.88,0,.39.13.69.53.74a5.42,5.42,0,0,0,.66.05c.1,0,.16,0,.16.11s-.1.13-.27.13c-.78,0-1.78,0-2,0s-1.1,0-1.64,0c-.17,0-.26,0-.26-.13s.05-.11.21-.11a2,2,0,0,0,.48-.05c.27,0,.34-.35.39-.74.07-.56.07-1.63.07-2.86Zm1.59,1.06c0,.15,0,.21.12.25a3.65,3.65,0,0,0,1,.13,1.3,1.3,0,0,0,.95-.23,2.33,2.33,0,0,0,.8-2,2.15,2.15,0,0,0-2.06-2.46,3,3,0,0,0-.71,0c-.1,0-.12.08-.12.19Z"/><path class="cls-2" d="M246.39,77.84a5.17,5.17,0,0,1,5.55-5.26c3.35,0,5.43,2,5.43,5a5.31,5.31,0,0,1-5.56,5.51A5.12,5.12,0,0,1,246.39,77.84Zm9.1.26c0-3-1.74-4.88-3.94-4.88-1.54,0-3.3.86-3.3,4.21,0,2.79,1.54,5,4.12,5C253.31,82.44,255.49,82,255.49,78.1Z"/><path class="cls-2" d="M262.69,76.66c0-2,0-2.42,0-2.85s-.13-.67-.57-.76a2.6,2.6,0,0,0-.53,0c-.15,0-.23,0-.23-.12s.1-.12.3-.12c.71,0,1.56,0,2,0s1.17,0,1.65,0c.2,0,.3,0,.3.12s-.08.12-.22.12a1.91,1.91,0,0,0-.39,0c-.36.07-.47.29-.49.76s0,.81,0,2.85v1.88c0,1.95.39,2.77,1,3.31a2.46,2.46,0,0,0,1.68.55,2.62,2.62,0,0,0,1.85-.73c.74-.73.78-1.94.78-3.33V76.66c0-2,0-2.42,0-2.85s-.13-.67-.57-.76a2.43,2.43,0,0,0-.49,0c-.15,0-.23,0-.23-.12s.1-.12.29-.12c.68,0,1.53,0,1.54,0,.16,0,1,0,1.53,0,.19,0,.29,0,.29.12s-.08.12-.25.12a1.91,1.91,0,0,0-.39,0c-.36.07-.47.29-.49.76s0,.81,0,2.85V78.1c0,1.49-.15,3.08-1.28,4a4,4,0,0,1-2.79,1,4.34,4.34,0,0,1-3-.92c-.69-.62-1.2-1.62-1.2-3.57Z"/><path class="cls-2" d="M277.67,76.66c0-2,0-2.42,0-2.85s-.14-.67-.58-.76a2.6,2.6,0,0,0-.53,0c-.14,0-.23,0-.23-.12s.1-.12.3-.12c.71,0,1.56,0,1.94,0,.55,0,1.33,0,1.94,0a3.28,3.28,0,0,1,2.5.76,2.32,2.32,0,0,1,.67,1.6,3.15,3.15,0,0,1-3.3,3.25h-.28c-.07,0-.16,0-.16-.12s.09-.15.37-.15a2.12,2.12,0,0,0,1.8-2.22,2.58,2.58,0,0,0-.79-2,2,2,0,0,0-1.34-.53,1.88,1.88,0,0,0-.53.06c-.07,0-.11.1-.11.25V79c0,1.23,0,2.3.07,2.87,0,.38.12.68.53.73a4.94,4.94,0,0,0,.68.05c.15,0,.22,0,.22.11s-.11.13-.26.13c-.89,0-1.73,0-2.08,0s-1.16,0-1.7,0c-.17,0-.26,0-.26-.13s.05-.11.21-.11a2.17,2.17,0,0,0,.49-.05c.26,0,.33-.35.39-.74.06-.56.06-1.63.06-2.86Z"/><path class="cls-2" d="M287.35,81c.12,0,.16.07.33.34a1.32,1.32,0,0,1,.3.7,2,2,0,0,1-.18.64,7.63,7.63,0,0,1-1.06,1.79c-.09.08-.15.16-.23.16s-.1-.07-.1-.13.08-.17.1-.23a2.31,2.31,0,0,0,.39-1.17c0-.77-.56-1-.56-1.17A1.12,1.12,0,0,1,287.35,81Z"/><path class="cls-2" d="M302.67,79c0,1.72,0,2.64.28,2.89s.57.29,1.62.29c.72,0,1.24,0,1.58-.37a1.64,1.64,0,0,0,.34-.81c0-.12,0-.2.15-.2s.11.07.11.23a10.3,10.3,0,0,1-.2,1.54c-.08.3-.15.36-.85.36-1,0-1.66,0-2.27,0s-1.09,0-1.64,0c-.15,0-.44,0-.76,0l-.93,0c-.18,0-.27,0-.27-.13s.05-.11.21-.11a2,2,0,0,0,.49-.05c.27,0,.33-.35.39-.74.07-.56.07-1.63.07-2.86V76.66c0-2,0-2.42,0-2.85s-.14-.67-.58-.76a1.83,1.83,0,0,0-.44,0c-.15,0-.23,0-.23-.12s.09-.12.29-.12c.64,0,1.48,0,1.85,0s1.3,0,1.82,0c.19,0,.28,0,.28.12s-.08.12-.24.12a3.12,3.12,0,0,0-.52,0c-.36.07-.47.29-.5.76s0,.81,0,2.85Z"/><path class="cls-2" d="M313.75,79c0,1.72,0,2.64.28,2.89s.58.29,1.63.29c.71,0,1.23,0,1.57-.37a1.75,1.75,0,0,0,.35-.81c0-.12,0-.2.15-.2s.1.07.1.23a10.3,10.3,0,0,1-.2,1.54c-.08.3-.14.36-.84.36-1,0-1.67,0-2.27,0s-1.09,0-1.64,0c-.15,0-.45,0-.77,0l-.93,0c-.17,0-.27,0-.27-.13s.06-.11.22-.11a2,2,0,0,0,.48-.05c.27,0,.34-.35.39-.74.07-.56.07-1.63.07-2.86V76.66c0-2,0-2.42,0-2.85s-.13-.67-.57-.76a1.87,1.87,0,0,0-.45,0c-.15,0-.23,0-.23-.12s.1-.12.3-.12c.63,0,1.48,0,1.84,0s1.3,0,1.83,0c.19,0,.28,0,.28.12s-.08.12-.24.12a3.32,3.32,0,0,0-.53,0c-.36.07-.47.29-.49.76s0,.81,0,2.85Z"/><path class="cls-2" d="M323.29,81.65A5.31,5.31,0,0,1,323.2,74a5.87,5.87,0,0,1,4.24-1.42,13.41,13.41,0,0,1,1.95.13c.51.07.94.19,1.34.23.15,0,.21.08.21.16s0,.27-.07.74,0,1.18,0,1.45,0,.31-.16.31-.14-.11-.14-.29a1.88,1.88,0,0,0-.52-1.24,4,4,0,0,0-2.73-.83,3.47,3.47,0,0,0-2.52.83,4.46,4.46,0,0,0-1.24,3.48,4.51,4.51,0,0,0,4.23,4.78c1.2,0,1.92-.13,2.46-.75a2.24,2.24,0,0,0,.46-.89c0-.21.06-.27.17-.27s.12.1.12.21a13.07,13.07,0,0,1-.29,1.78.47.47,0,0,1-.35.39,7.65,7.65,0,0,1-2.42.31A6.72,6.72,0,0,1,323.29,81.65Z"/><path class="cls-3" d="M24.43,6.54c-2.95.21-5.74.4-7.6.4-2.53,0-5.29-.21-7.72-.4C7.3,6.4,5.73,6.27,4.62,6.27,1.53,6.27.43,8,.43,9.39c0,2.86,3.21,2.86,4.41,2.86,1.41,0,4.71.13,4.95,1.33.31,1.52.83,5.94.83,18.58V43.83H23.85v-.62c.07.07.12.15.19.22a3.51,3.51,0,0,0,.53.4h7.49V38.18l-.33,0a25.53,25.53,0,0,1-4.15.35c-1.81.08-3,.51-3.73,1.28V36c0-14.08.18-20.62.61-22.59.07-.38,1.07-.94,4.4-.94a26,26,0,0,1,3,.17h.24V6.11H32C29.65,6.18,27,6.37,24.43,6.54ZM25,66c-.52-2.75-1.14-9.87-1.14-20.87H10.62v1.36c0,10.86-.09,16.89-.59,19.67-.17.85-.37,1.94-5.19,1.94a4.3,4.3,0,0,0-2.37.61,32.63,32.63,0,0,0,2.81,5.33h0c1.06,0,2.77-.13,4.75-.27,2.43-.19,5.2-.39,7.23-.39,1.66,0,4.08.17,6.42.34s4.43.32,5.91.32a6.42,6.42,0,0,0,2.46-.4V68.6a6.37,6.37,0,0,0-2.66-.47C25.41,68.13,25.17,66.86,25,66ZM45.09,45.16H33.4v4.69C41.57,61.11,48.25,70.18,56.32,78.7l.13.1a32.51,32.51,0,0,0,7-11.26A211.6,211.6,0,0,1,45.09,45.16Zm-1.48-1.73a1.86,1.86,0,0,0-.31-.76l-1.09-1.56c9.4-4.36,14.54-10.87,14.54-18.52,0-11.12-7.41-16.52-22.63-16.52H33.4v6.85c6.09,1.27,9.05,5.29,9.05,12.28s-3,11.08-9.05,12.65v6H44.09A2,2,0,0,0,43.61,43.43ZM32.06,48V45.16H29.54C29.63,45.23,32,47.92,32.06,48Z"/><path class="cls-2" d="M29.4,70.13c-3.45,0-5.8-.84-6.36-3.72s-1.18-9.84-1.18-21.25H12.62v1.36c0,11.3-.1,17.13-.62,20-.52,2.72-2.66,3.59-7.16,3.59a1.9,1.9,0,0,0-1.52.49c.22.45.45.91.7,1.35a6.26,6.26,0,0,0,1.27.1c2.26,0,8.24-.66,12-.66,3.35,0,9.41.66,12.33.66,1.48,0,2.14-.21,2.14-.91S31.11,70.13,29.4,70.13Z"/><path class="cls-2" d="M4.62,8.27c-1.21,0-2.19.36-2.19,1.12s.81.86,2.41.86c4.22,0,6.49.88,6.91,2.94.49,2.41.87,8.2.87,19V43.83h9.23V36c0-16.84.26-21.22.66-23s2.33-2.51,6.35-2.51a25.14,25.14,0,0,1,3.2.19V8.1c-5,.17-11.66.84-15.23.84C12.31,8.94,7.06,8.27,4.62,8.27Z"/><path class="cls-2" d="M42.62,45.16H33.4v1.29l.11.14c9.26,12.78,16,22,24.26,30.73a33,33,0,0,0,4.86-7.74A218.44,218.44,0,0,1,42.62,45.16Z"/><path class="cls-2" d="M25.25,41.61c0,.43.72.91,1.92.88a5.34,5.34,0,0,1,3.93,1.34h1V40.18a28.46,28.46,0,0,1-4.47.37C26.05,40.62,25.25,40.87,25.25,41.61Z"/><path class="cls-2" d="M39.18,40.25C49.4,36.17,54.75,29.84,54.75,22.59c0-9.59-6-14.52-20.63-14.52H33.4v2.81c6.93,1.29,11.05,5.81,11.05,14.32S40.36,38.31,33.4,39.92v3.91h8.27C40.81,42.61,40,41.41,39.18,40.25Z"/></g></g></svg>