<svg xmlns="http://www.w3.org/2000/svg" xmlns:xlink="http://www.w3.org/1999/xlink" viewBox="0 0 757.65 646.35"><defs><style>.cls-1{fill:url(#linear-gradient);}.cls-2,.cls-29{fill:#005398;}.cls-3{fill:url(#linear-gradient-2);}.cls-4{fill:url(#linear-gradient-3);}.cls-5{fill:url(#linear-gradient-4);}.cls-6{fill:url(#linear-gradient-5);}.cls-7{fill:url(#linear-gradient-6);}.cls-8{fill:#63b8dd;}.cls-9{fill:url(#linear-gradient-7);}.cls-10{fill:url(#linear-gradient-8);}.cls-11{fill:url(#linear-gradient-9);}.cls-12{fill:url(#linear-gradient-10);}.cls-13{fill:url(#linear-gradient-11);}.cls-14{fill:url(#linear-gradient-12);}.cls-15{fill:url(#linear-gradient-13);}.cls-16{fill:#99999a;}.cls-17{fill:#807f7f;}.cls-18{fill:url(#linear-gradient-14);}.cls-19{fill:none;}.cls-20{clip-path:url(#clip-path);}.cls-21{fill:url(#linear-gradient-16);}.cls-22{fill:#054d7f;}.cls-23{fill:#005287;}.cls-24{clip-path:url(#clip-path-2);}.cls-25{fill:url(#linear-gradient-18);}.cls-26{clip-path:url(#clip-path-3);}.cls-27{fill:url(#linear-gradient-20);}.cls-28{clip-path:url(#clip-path-4);}.cls-29{opacity:0.6;mix-blend-mode:lighten;}.cls-30{clip-path:url(#clip-path-5);}.cls-31{fill:url(#linear-gradient-22);}.cls-32{clip-path:url(#clip-path-6);}.cls-33{clip-path:url(#clip-path-7);}.cls-34{fill:url(#linear-gradient-24);}.cls-35{clip-path:url(#clip-path-8);}.cls-36{clip-path:url(#clip-path-9);}.cls-37{fill:url(#linear-gradient-26);}.cls-38{clip-path:url(#clip-path-10);}.cls-39{clip-path:url(#clip-path-11);}.cls-40{fill:url(#linear-gradient-28);}.cls-41{clip-path:url(#clip-path-12);}.cls-42{isolation:isolate;}.cls-43{fill:url(#Blue_Sheild);}.cls-44{opacity:0.1;}.cls-45{clip-path:url(#clip-path-13);}.cls-46{fill:url(#linear-gradient-30);}.cls-47{clip-path:url(#clip-path-14);}.cls-48{clip-path:url(#clip-path-15);}.cls-49{fill:url(#linear-gradient-32);}.cls-50{clip-path:url(#clip-path-16);}.cls-51{clip-path:url(#clip-path-17);}.cls-52{fill:url(#linear-gradient-34);}.cls-53{clip-path:url(#clip-path-18);}.cls-54{clip-path:url(#clip-path-19);}.cls-55{fill:url(#linear-gradient-36);}.cls-56{clip-path:url(#clip-path-20);}.cls-57{clip-path:url(#clip-path-21);}.cls-58{fill:url(#linear-gradient-38);}.cls-59{clip-path:url(#clip-path-22);}.cls-60{clip-path:url(#clip-path-23);}.cls-61{fill:url(#linear-gradient-40);}.cls-62{clip-path:url(#clip-path-24);}.cls-63{clip-path:url(#clip-path-25);}.cls-64{fill:url(#linear-gradient-42);}.cls-65{clip-path:url(#clip-path-26);}.cls-66{clip-path:url(#clip-path-27);}.cls-67{fill:url(#linear-gradient-43);}.cls-68{fill:#989797;}.cls-69{mix-blend-mode:multiply;}.cls-70{clip-path:url(#clip-path-28);}.cls-71{fill:url(#linear-gradient-44);}.cls-72{clip-path:url(#clip-path-29);}.cls-73{fill:url(#linear-gradient-45);}.cls-74{clip-path:url(#clip-path-30);}.cls-75{fill:url(#linear-gradient-46);}.cls-76{clip-path:url(#clip-path-31);}.cls-77{fill:url(#linear-gradient-47);}.cls-78{clip-path:url(#clip-path-32);}.cls-79{fill:url(#linear-gradient-48);}.cls-80{clip-path:url(#clip-path-33);}.cls-81{fill:url(#linear-gradient-49);}.cls-82{clip-path:url(#clip-path-34);}.cls-83{fill:url(#linear-gradient-50);}.cls-84{clip-path:url(#clip-path-35);}.cls-85{fill:url(#linear-gradient-51);}.cls-86{clip-path:url(#clip-path-36);}.cls-87{fill:url(#linear-gradient-52);}.cls-88{clip-path:url(#clip-path-37);}.cls-89{fill:url(#linear-gradient-53);}.cls-90{clip-path:url(#clip-path-38);}.cls-91{fill:url(#linear-gradient-54);}.cls-92{clip-path:url(#clip-path-39);}.cls-93{fill:url(#linear-gradient-55);}.cls-94{clip-path:url(#clip-path-40);}.cls-95{fill:url(#linear-gradient-56);}.cls-96{clip-path:url(#clip-path-41);}.cls-97{fill:url(#linear-gradient-57);}.cls-98{clip-path:url(#clip-path-42);}.cls-99{fill:url(#linear-gradient-58);}.cls-100{clip-path:url(#clip-path-43);}.cls-101{fill:url(#linear-gradient-59);}.cls-102{clip-path:url(#clip-path-44);}.cls-103{fill:url(#linear-gradient-60);}.cls-104{clip-path:url(#clip-path-45);}.cls-105{fill:url(#linear-gradient-61);}.cls-106{clip-path:url(#clip-path-46);}.cls-107{fill:url(#linear-gradient-62);}</style><linearGradient id="linear-gradient" x1="-7662.96" y1="-22903.34" x2="-7574.95" y2="-22903.34" gradientTransform="matrix(1, 0, 0, -1, 7750.97, -22715.69)" gradientUnits="userSpaceOnUse"><stop offset="0" stop-color="#03549a"/><stop offset="0.87" stop-color="#03549a"/></linearGradient><linearGradient id="linear-gradient-2" x1="-7706.97" y1="-22809.52" x2="-7618.96" y2="-22809.52" xlink:href="#linear-gradient"/><linearGradient id="linear-gradient-3" x1="-7794.98" y1="-22809.52" x2="-7706.97" y2="-22809.52" xlink:href="#linear-gradient"/><linearGradient id="linear-gradient-4" x1="-7662.96" y1="-22715.69" x2="-7574.95" y2="-22715.69" xlink:href="#linear-gradient"/><linearGradient id="linear-gradient-5" x1="-7750.97" y1="-22715.69" x2="-7662.96" y2="-22715.69" xlink:href="#linear-gradient"/><linearGradient id="linear-gradient-6" x1="342.06" y1="-699.51" x2="416.18" y2="-699.51" gradientTransform="translate(0 1122.14)" xlink:href="#linear-gradient"/><linearGradient id="linear-gradient-7" x1="380.43" y1="-781.26" x2="454.55" y2="-781.26" gradientTransform="translate(0 1122.14)" xlink:href="#linear-gradient"/><linearGradient id="linear-gradient-8" x1="39.4" y1="-866.45" x2="113.52" y2="-866.45" gradientTransform="translate(0 1122.14)" xlink:href="#linear-gradient"/><linearGradient id="linear-gradient-9" x1="-7750.97" y1="-22903.34" x2="-7662.96" y2="-22903.34" xlink:href="#linear-gradient"/><linearGradient id="linear-gradient-10" x1="76.46" y1="-943.55" x2="150.58" y2="-943.55" gradientTransform="translate(0 1122.14)" xlink:href="#linear-gradient"/><linearGradient id="linear-gradient-11" x1="531.51" y1="-620.52" x2="605.63" y2="-620.52" gradientTransform="translate(0 1122.14)" xlink:href="#linear-gradient"/><linearGradient id="linear-gradient-12" x1="570.23" y1="-861.42" x2="644.35" y2="-861.42" gradientTransform="translate(0 1122.14)" xlink:href="#linear-gradient"/><linearGradient id="linear-gradient-13" x1="492.29" y1="-1023.46" x2="566.41" y2="-1023.46" gradientTransform="translate(0 1122.14)" xlink:href="#linear-gradient"/><linearGradient id="linear-gradient-14" x1="-7618.96" y1="-22809.52" x2="-7530.95" y2="-22809.52" xlink:href="#linear-gradient"/><clipPath id="clip-path"><path class="cls-1" d="M175.22,160.26c-23.64-.38-42.73-17.63-43.19-39h0c-.46,21.34-19.46,38.56-43,39H88v54.79h0c.46,21.39,19.55,38.64,43.2,39H133c23.57-.46,42.57-17.68,43-39h0V160.26Z"/></clipPath><linearGradient id="linear-gradient-16" x1="-7662.96" y1="-22903.34" x2="-7574.95" y2="-22903.34" gradientTransform="matrix(1, 0, 0, -1, 7750.97, -22715.69)" gradientUnits="userSpaceOnUse"><stop offset="0" stop-color="#3883c5"/><stop offset="0.87" stop-color="#03549a"/></linearGradient><clipPath id="clip-path-2"><path class="cls-11" d="M87.21,160.26c-23.64-.38-42.74-17.63-43.19-39h0c-.45,21.34-19.46,38.56-43,39H0v54.79H0c.46,21.39,19.55,38.64,43.2,39H45c23.57-.46,42.57-17.68,43-39h0V160.26Z"/></clipPath><linearGradient id="linear-gradient-18" x1="-7750.97" y1="-22903.34" x2="-7662.96" y2="-22903.34" xlink:href="#linear-gradient-16"/><clipPath id="clip-path-3"><path class="cls-18" d="M219.23,66.43c-23.65-.38-42.74-17.63-43.2-39h0c-.46,21.34-19.46,38.56-43,39h-1v54.8h0c.46,21.38,19.55,38.63,43.19,39H177c23.57-.46,42.57-17.68,43-39h0V66.43Z"/></clipPath><linearGradient id="linear-gradient-20" x1="-7618.96" y1="-22809.52" x2="-7530.95" y2="-22809.52" xlink:href="#linear-gradient-16"/><clipPath id="clip-path-4"><path class="cls-2" d="M175.22,157.24c-22.09-.35-39.77-16.2-40.19-36.08V69.35c18.9-1.09,34.65-12.19,41-27.58,6.34,15.41,22.1,26.51,41,27.58v51.81c-.43,19.8-18,35.65-40.09,36.08h-1.71Z"/></clipPath><clipPath id="clip-path-5"><path class="cls-3" d="M131.22,66.43c-23.65-.38-42.74-17.63-43.2-39h0c-.46,21.34-19.46,38.56-43,39H44v54.8h0c.45,21.38,19.55,38.63,43.19,39H89c23.57-.46,42.57-17.68,43-39h0V66.43Z"/></clipPath><linearGradient id="linear-gradient-22" x1="-7706.97" y1="-22809.52" x2="-7618.96" y2="-22809.52" xlink:href="#linear-gradient-16"/><clipPath id="clip-path-6"><path class="cls-2" d="M87.21,157.24C65.12,156.89,47.44,141,47,121.16V69.35c18.9-1.09,34.65-12.19,41-27.58,6.34,15.41,22.1,26.51,41,27.58v51.81c-.43,19.8-18,35.65-40.09,36.08H87.21Z"/></clipPath><clipPath id="clip-path-7"><path class="cls-4" d="M43.21,66.43C19.56,66.05.47,48.8,0,27.41H0C-.47,48.75-19.47,66-43,66.43h-1v54.8h0c.45,21.38,19.55,38.63,43.19,39H1c23.56-.46,42.57-17.68,43-39h0V66.43Z"/></clipPath><linearGradient id="linear-gradient-24" x1="-7794.98" y1="-22809.52" x2="-7706.97" y2="-22809.52" xlink:href="#linear-gradient-16"/><clipPath id="clip-path-8"><path class="cls-2" d="M-.8,157.24c-22.09-.35-39.77-16.2-40.2-36.08V69.35C-22.1,68.26-6.35,57.16,0,41.77,6.34,57.18,22.1,68.28,41,69.35v51.81C40.57,141,23,156.81.91,157.24H-.8Z"/></clipPath><clipPath id="clip-path-9"><path class="cls-5" d="M175.22-27.4c-23.64-.38-42.73-17.63-43.19-39h0c-.46,21.33-19.46,38.55-43,39H88V27.4h0c.46,21.38,19.55,38.63,43.2,39H133c23.57-.46,42.57-17.68,43-39h0V-27.4Z"/></clipPath><linearGradient id="linear-gradient-26" x1="-7662.96" y1="-22715.69" x2="-7574.95" y2="-22715.69" xlink:href="#linear-gradient-16"/><clipPath id="clip-path-10"><path class="cls-2" d="M131.22,63.41c-22.09-.35-39.77-16.2-40.2-36.08V-24.48c18.91-1.09,34.66-12.19,41-27.57,6.34,15.41,22.11,26.5,41,27.57V27.33c-.42,19.8-18,35.65-40.09,36.08h-1.7Z"/></clipPath><clipPath id="clip-path-11"><path class="cls-6" d="M87.21-27.4C63.57-27.78,44.47-45,44-66.41h0c-.45,21.33-19.46,38.55-43,39H0V27.4H0c.46,21.38,19.55,38.63,43.2,39H45c23.57-.46,42.57-17.68,43-39h0V-27.4Z"/></clipPath><linearGradient id="linear-gradient-28" x1="-7750.97" y1="-22715.69" x2="-7662.96" y2="-22715.69" xlink:href="#linear-gradient-16"/><clipPath id="clip-path-12"><path class="cls-2" d="M43.21,63.41C21.11,63.06,3.44,47.21,3,27.33V-24.48C21.91-25.57,37.66-36.67,44-52c6.34,15.41,22.11,26.5,41,27.57V27.33C84.58,47.13,67,63,44.91,63.41h-1.7Z"/></clipPath><pattern id="Blue_Sheild" data-name="Blue Sheild" width="176.02" height="187.66" patternTransform="translate(-387.61 -411.81) scale(0.86)" patternUnits="userSpaceOnUse" viewBox="0 0 176.02 187.66"><rect class="cls-19" width="176.02" height="187.66"/><path class="cls-1" d="M175.22,160.26c-23.64-.38-42.73-17.63-43.19-39h0c-.46,21.34-19.46,38.56-43,39H88v54.79h0c.46,21.39,19.55,38.64,43.2,39H133c23.57-.46,42.57-17.68,43-39h0V160.26Z"/><g class="cls-20"><path class="cls-21" d="M175.22,160.26c-23.64-.38-42.73-17.63-43.19-39h0c-.46,21.34-19.46,38.56-43,39H88v54.79h0c.46,21.39,19.55,38.64,43.2,39H133c23.57-.46,42.57-17.68,43-39h0V160.26Z"/><circle class="cls-22" cx="90.51" cy="126.7" r="41.51"/><circle class="cls-23" cx="173.52" cy="126.7" r="41.51"/><path class="cls-2" d="M131.22,251.07c-22.09-.36-39.77-16.2-40.2-36.08V163.18c18.91-1.09,34.66-12.2,41-27.58,6.34,15.41,22.11,26.51,41,27.58V215c-.42,19.8-18,35.65-40.09,36.08h-1.7Z"/></g><path class="cls-11" d="M87.21,160.26c-23.64-.38-42.74-17.63-43.19-39h0c-.45,21.34-19.46,38.56-43,39H0v54.79H0c.46,21.39,19.55,38.64,43.2,39H45c23.57-.46,42.57-17.68,43-39h0V160.26Z"/><g class="cls-24"><path class="cls-25" d="M87.21,160.26c-23.64-.38-42.74-17.63-43.19-39h0c-.45,21.34-19.46,38.56-43,39H0v54.79H0c.46,21.39,19.55,38.64,43.2,39H45c23.57-.46,42.57-17.68,43-39h0V160.26Z"/><circle class="cls-22" cx="2.5" cy="126.7" r="41.51"/><circle class="cls-23" cx="85.51" cy="126.7" r="41.51"/><path class="cls-2" d="M43.21,251.07C21.11,250.71,3.44,234.87,3,215V163.18c18.91-1.09,34.66-12.2,41-27.58,6.34,15.41,22.11,26.51,41,27.58V215c-.42,19.8-18,35.65-40.09,36.08h-1.7Z"/></g><path class="cls-18" d="M219.23,66.43c-23.65-.38-42.74-17.63-43.2-39h0c-.46,21.34-19.46,38.56-43,39h-1v54.8h0c.46,21.38,19.55,38.63,43.19,39H177c23.57-.46,42.57-17.68,43-39h0V66.43Z"/><g class="cls-26"><path class="cls-27" d="M219.23,66.43c-23.65-.38-42.74-17.63-43.2-39h0c-.46,21.34-19.46,38.56-43,39h-1v54.8h0c.46,21.38,19.55,38.63,43.19,39H177c23.57-.46,42.57-17.68,43-39h0V66.43Z"/><circle class="cls-22" cx="134.51" cy="32.87" r="41.51"/><path class="cls-2" d="M175.22,157.24c-22.09-.35-39.77-16.2-40.19-36.08V69.35c18.9-1.09,34.65-12.19,41-27.58,6.34,15.41,22.1,26.51,41,27.58v51.81c-.43,19.8-18,35.65-40.09,36.08h-1.71Z"/><g class="cls-28"><path class="cls-2" d="M102.67,127.53"/><polygon class="cls-29" points="118.8 139.77 263.02 100.66 252.58 192.66 177.59 238.44 89.02 214.88 118.8 139.77"/></g></g><path class="cls-3" d="M131.22,66.43c-23.65-.38-42.74-17.63-43.2-39h0c-.46,21.34-19.46,38.56-43,39H44v54.8h0c.45,21.38,19.55,38.63,43.19,39H89c23.57-.46,42.57-17.68,43-39h0V66.43Z"/><g class="cls-30"><path class="cls-31" d="M131.22,66.43c-23.65-.38-42.74-17.63-43.2-39h0c-.46,21.34-19.46,38.56-43,39H44v54.8h0c.45,21.38,19.55,38.63,43.19,39H89c23.57-.46,42.57-17.68,43-39h0V66.43Z"/><circle class="cls-22" cx="46.5" cy="32.87" r="41.51"/><circle class="cls-23" cx="129.52" cy="32.87" r="41.51"/><path class="cls-2" d="M87.21,157.24C65.12,156.89,47.44,141,47,121.16V69.35c18.9-1.09,34.65-12.19,41-27.58,6.34,15.41,22.1,26.51,41,27.58v51.81c-.43,19.8-18,35.65-40.09,36.08H87.21Z"/><g class="cls-32"><path class="cls-2" d="M14.66,127.53"/><polygon class="cls-29" points="30.79 139.77 175.01 100.66 164.57 192.66 89.58 238.44 1.01 214.88 30.79 139.77"/></g></g><path class="cls-4" d="M43.21,66.43C19.56,66.05.47,48.8,0,27.41H0C-.47,48.75-19.47,66-43,66.43h-1v54.8h0c.45,21.38,19.55,38.63,43.19,39H1c23.56-.46,42.57-17.68,43-39h0V66.43Z"/><g class="cls-33"><path class="cls-34" d="M43.21,66.43C19.56,66.05.47,48.8,0,27.41H0C-.47,48.75-19.47,66-43,66.43h-1v54.8h0c.45,21.38,19.55,38.63,43.19,39H1c23.56-.46,42.57-17.68,43-39h0V66.43Z"/><circle class="cls-23" cx="41.51" cy="32.87" r="41.51"/><path class="cls-2" d="M-.8,157.24c-22.09-.35-39.77-16.2-40.2-36.08V69.35C-22.1,68.26-6.35,57.16,0,41.77,6.34,57.18,22.1,68.28,41,69.35v51.81C40.57,141,23,156.81.91,157.24H-.8Z"/><g class="cls-35"><polygon class="cls-29" points="-57.22 139.77 87 100.66 76.56 192.66 1.57 238.44 -87 214.88 -57.22 139.77"/></g></g><path class="cls-5" d="M175.22-27.4c-23.64-.38-42.73-17.63-43.19-39h0c-.46,21.33-19.46,38.55-43,39H88V27.4h0c.46,21.38,19.55,38.63,43.2,39H133c23.57-.46,42.57-17.68,43-39h0V-27.4Z"/><g class="cls-36"><path class="cls-37" d="M175.22-27.4c-23.64-.38-42.73-17.63-43.19-39h0c-.46,21.33-19.46,38.55-43,39H88V27.4h0c.46,21.38,19.55,38.63,43.2,39H133c23.57-.46,42.57-17.68,43-39h0V-27.4Z"/><path class="cls-2" d="M131.22,63.41c-22.09-.35-39.77-16.2-40.2-36.08V-24.48c18.91-1.09,34.66-12.19,41-27.57,6.34,15.41,22.11,26.5,41,27.57V27.33c-.42,19.8-18,35.65-40.09,36.08h-1.7Z"/><g class="cls-38"><path class="cls-2" d="M58.67,33.7"/><polygon class="cls-29" points="74.79 45.95 219.02 6.83 208.57 98.83 133.59 144.61 45.02 121.06 74.79 45.95"/></g></g><path class="cls-6" d="M87.21-27.4C63.57-27.78,44.47-45,44-66.41h0c-.45,21.33-19.46,38.55-43,39H0V27.4H0c.46,21.38,19.55,38.63,43.2,39H45c23.57-.46,42.57-17.68,43-39h0V-27.4Z"/><g class="cls-39"><path class="cls-40" d="M87.21-27.4C63.57-27.78,44.47-45,44-66.41h0c-.45,21.33-19.46,38.55-43,39H0V27.4H0c.46,21.38,19.55,38.63,43.2,39H45c23.57-.46,42.57-17.68,43-39h0V-27.4Z"/><path class="cls-2" d="M43.21,63.41C21.11,63.06,3.44,47.21,3,27.33V-24.48C21.91-25.57,37.66-36.67,44-52c6.34,15.41,22.11,26.5,41,27.57V27.33C84.58,47.13,67,63,44.91,63.41h-1.7Z"/><g class="cls-41"><polygon class="cls-29" points="-13.22 45.95 131 6.83 120.56 98.83 45.58 144.61 -42.99 121.06 -13.22 45.95"/></g></g></pattern><clipPath id="clip-path-13"><path class="cls-7" d="M415.51,399.55c-19.91-.32-36-14.84-36.38-32.85h0c-.38,18-16.39,32.47-36.23,32.85h-.82V445.7h0c.39,18,16.47,32.54,36.38,32.86h1.48c19.85-.39,35.86-14.89,36.24-32.86h0V399.55Z"/></clipPath><linearGradient id="linear-gradient-30" x1="342.06" y1="-699.51" x2="416.18" y2="-699.51" gradientTransform="translate(0 1122.14)" gradientUnits="userSpaceOnUse"><stop offset="0" stop-color="#00adee"/><stop offset="0.83" stop-color="#25a9e0"/></linearGradient><clipPath id="clip-path-14"><path class="cls-8" d="M378.45,476c-18.61-.3-33.49-13.64-33.85-30.38V402c15.92-.92,29.19-10.27,34.53-23.22,5.34,13,18.61,22.32,34.53,23.22v43.64c-.36,16.67-15.19,30-33.76,30.38h-1.44Z"/></clipPath><clipPath id="clip-path-15"><path class="cls-9" d="M453.88,317.81C434,317.49,417.88,303,417.5,285h0c-.39,18-16.39,32.47-36.24,32.86h-.81V364h0c.38,18,16.46,32.54,36.38,32.86h1.48c19.85-.39,35.85-14.89,36.24-32.86h0V317.81Z"/></clipPath><linearGradient id="linear-gradient-32" x1="380.43" y1="-781.26" x2="454.55" y2="-781.26" xlink:href="#linear-gradient-30"/><clipPath id="clip-path-16"><path class="cls-8" d="M416.82,394.29c-18.61-.3-33.5-13.65-33.86-30.39V320.27c15.92-.92,29.18-10.27,34.53-23.23,5.34,13,18.61,22.33,34.53,23.23V363.9c-.35,16.68-15.18,30-33.76,30.38h-1.43Z"/></clipPath><clipPath id="clip-path-17"><path class="cls-10" d="M112.85,232.62c-19.92-.32-36-14.85-36.38-32.86h0c-.39,18-16.39,32.47-36.24,32.85H39.4v46.14h0c.38,18,16.46,32.54,36.38,32.86h1.48c19.85-.39,35.85-14.89,36.24-32.86h0V232.62Z"/></clipPath><linearGradient id="linear-gradient-34" x1="39.4" y1="-866.45" x2="113.52" y2="-866.45" xlink:href="#linear-gradient-30"/><clipPath id="clip-path-18"><path class="cls-8" d="M75.79,309.09c-18.61-.3-33.5-13.64-33.86-30.38V235.08c15.92-.93,29.18-10.28,34.53-23.23,5.34,13,18.61,22.32,34.53,23.23v43.63c-.35,16.67-15.18,30-33.76,30.38H75.79Z"/></clipPath><clipPath id="clip-path-19"><path class="cls-12" d="M149.91,155.52c-19.92-.32-36-14.85-36.38-32.86h0c-.39,18-16.39,32.47-36.24,32.86h-.81v46.14h0c.38,18,16.46,32.54,36.38,32.86h1.48c19.85-.39,35.85-14.89,36.24-32.86h0V155.52Z"/></clipPath><linearGradient id="linear-gradient-36" x1="76.46" y1="-943.55" x2="150.58" y2="-943.55" xlink:href="#linear-gradient-30"/><clipPath id="clip-path-20"><path class="cls-8" d="M112.85,232c-18.61-.3-33.5-13.65-33.86-30.39V158c15.93-.92,29.19-10.27,34.53-23.23,5.34,13,18.62,22.33,34.54,23.23v43.63c-.36,16.68-15.18,30-33.76,30.38h-1.43Z"/></clipPath><clipPath id="clip-path-21"><path class="cls-13" d="M605,478.55c-19.92-.32-36-14.85-36.38-32.86h0c-.39,18-16.39,32.47-36.24,32.86h-.81V524.7h0c.38,18,16.46,32.54,36.38,32.86h1.48c19.85-.39,35.85-14.9,36.24-32.86h0V478.55Z"/></clipPath><linearGradient id="linear-gradient-38" x1="531.51" y1="-620.52" x2="605.63" y2="-620.52" xlink:href="#linear-gradient-30"/><clipPath id="clip-path-22"><path class="cls-8" d="M567.9,555c-18.61-.3-33.5-13.65-33.86-30.39V481c15.93-.92,29.19-10.27,34.53-23.22,5.34,13,18.62,22.32,34.54,23.22v43.63c-.36,16.68-15.18,30-33.76,30.39H567.9Z"/></clipPath><clipPath id="clip-path-23"><path class="cls-14" d="M643.68,237.65c-19.92-.32-36-14.85-36.38-32.85h0c-.39,18-16.39,32.46-36.24,32.85h-.81V283.8h0c.38,18,16.46,32.54,36.38,32.86h1.48c19.85-.39,35.85-14.89,36.24-32.86h0V237.65Z"/></clipPath><linearGradient id="linear-gradient-40" x1="570.23" y1="-861.42" x2="644.35" y2="-861.42" xlink:href="#linear-gradient-30"/><clipPath id="clip-path-24"><path class="cls-8" d="M606.62,314.13c-18.61-.3-33.5-13.65-33.86-30.39V240.11c15.93-.92,29.19-10.27,34.53-23.22,5.34,13,18.62,22.32,34.54,23.22v43.63c-.36,16.68-15.18,30-33.76,30.39h-1.43Z"/></clipPath><clipPath id="clip-path-25"><path class="cls-15" d="M565.74,75.61c-19.92-.32-36-14.85-36.38-32.86h0c-.38,18-16.39,32.47-36.23,32.86h-.82v46.14h0c.39,18,16.47,32.54,36.38,32.86h1.48c19.85-.39,35.86-14.89,36.24-32.86h0V75.61Z"/></clipPath><linearGradient id="linear-gradient-42" x1="492.29" y1="-1023.46" x2="566.41" y2="-1023.46" xlink:href="#linear-gradient-30"/><clipPath id="clip-path-26"><path class="cls-8" d="M528.68,152.09c-18.61-.3-33.5-13.65-33.85-30.39V78.07c15.92-.92,29.18-10.27,34.53-23.23,5.34,13,18.61,22.33,34.53,23.23V121.7c-.35,16.68-15.18,30-33.75,30.38h-1.44Z"/></clipPath><clipPath id="clip-path-27"><path class="cls-16" d="M452.57,154.62c-19.92-.32-36-14.85-36.38-32.86h0c-.38,18-16.39,32.47-36.23,32.86h-.82v46.15h0c.39,18,16.47,32.53,36.38,32.85H417c19.85-.38,35.86-14.89,36.24-32.85h0V154.62Z"/></clipPath><linearGradient id="linear-gradient-43" x1="420.1" y1="121.81" x2="420.1" y2="243.07" gradientUnits="userSpaceOnUse"><stop offset="0" stop-color="#99999a"/><stop offset="0.87" stop-color="#d8d8d7"/></linearGradient><clipPath id="clip-path-28"><path class="cls-17" d="M415.51,231.1c-18.61-.3-33.5-13.65-33.85-30.39V157.08c15.92-.92,29.18-10.27,34.53-23.22,5.34,13,18.61,22.32,34.53,23.22v43.63c-.35,16.68-15.18,30-33.75,30.39h-1.44Z"/></clipPath><linearGradient id="linear-gradient-44" x1="435.25" y1="275.67" x2="398.53" y2="165.6" gradientUnits="userSpaceOnUse"><stop offset="0" stop-color="#e5e2df"/><stop offset="0" stop-color="#d6d3d0"/><stop offset="0" stop-color="#b0aca9"/><stop offset="0" stop-color="#8e8a87"/><stop offset="0.15" stop-color="#868381"/><stop offset="0.52" stop-color="#aeafb0"/><stop offset="0.63" stop-color="#a1a1a1"/><stop offset="0.84" stop-color="#7f7c7a"/><stop offset="0.88" stop-color="#787573"/><stop offset="1" stop-color="#808284"/><stop offset="1" stop-color="#d0d2d3"/></linearGradient><clipPath id="clip-path-29"><path class="cls-16" d="M641.7,399.55c-19.91-.32-36-14.84-36.37-32.85h0c-.39,18-16.39,32.47-36.24,32.85h-.81V445.7h0c.38,18,16.46,32.54,36.37,32.86h1.49c19.85-.39,35.85-14.89,36.24-32.86h0V399.55Z"/></clipPath><linearGradient id="linear-gradient-45" x1="609.23" y1="366.74" x2="609.23" y2="488" xlink:href="#linear-gradient-43"/><clipPath id="clip-path-30"><path class="cls-17" d="M604.64,476c-18.6-.3-33.49-13.64-33.85-30.38V402c15.92-.92,29.19-10.27,34.53-23.22,5.34,13,18.62,22.32,34.54,23.22v43.64c-.36,16.67-15.19,30-33.76,30.38h-1.44Z"/></clipPath><linearGradient id="linear-gradient-46" x1="624.39" y1="520.61" x2="587.67" y2="410.54" xlink:href="#linear-gradient-44"/><clipPath id="clip-path-31"><path class="cls-16" d="M567.07,399.55c-19.91-.32-36-14.84-36.38-32.85h0c-.38,18-16.39,32.47-36.23,32.85h-.82V445.7h0c.39,18,16.47,32.54,36.38,32.86h1.49c19.84-.39,35.85-14.89,36.23-32.86h0V399.55Z"/></clipPath><linearGradient id="linear-gradient-47" x1="534.6" y1="366.74" x2="534.6" y2="488" xlink:href="#linear-gradient-43"/><clipPath id="clip-path-32"><path class="cls-17" d="M530,476c-18.61-.3-33.49-13.64-33.85-30.38V402c15.92-.92,29.19-10.27,34.53-23.22,5.34,13,18.61,22.32,34.54,23.22v43.64c-.36,16.67-15.19,30-33.76,30.38H530Z"/></clipPath><linearGradient id="linear-gradient-48" x1="549.75" y1="520.61" x2="513.03" y2="410.54" xlink:href="#linear-gradient-44"/><clipPath id="clip-path-33"><path class="cls-16" d="M112.85,397.26c-19.92-.32-36-14.85-36.38-32.86h0c-.39,18-16.39,32.47-36.24,32.86H39.4v46.15h0c.38,18,16.46,32.53,36.38,32.85h1.48c19.85-.39,35.85-14.89,36.24-32.85h0V397.26Z"/></clipPath><linearGradient id="linear-gradient-49" x1="80.38" y1="364.45" x2="80.38" y2="485.71" xlink:href="#linear-gradient-43"/><clipPath id="clip-path-34"><path class="cls-17" d="M75.79,473.74c-18.61-.3-33.5-13.65-33.86-30.39V399.72c15.92-.92,29.18-10.27,34.53-23.23,5.34,13,18.61,22.33,34.53,23.23v43.63c-.35,16.68-15.18,30-33.76,30.39H75.79Z"/></clipPath><linearGradient id="linear-gradient-50" x1="95.53" y1="518.31" x2="58.81" y2="408.24" xlink:href="#linear-gradient-44"/><clipPath id="clip-path-35"><path class="cls-16" d="M300.63,157.4c-19.91-.32-36-14.85-36.38-32.86h0c-.39,18-16.39,32.47-36.24,32.86h-.82v46.15h0c.39,18,16.47,32.54,36.38,32.86h1.49c19.85-.38,35.85-14.89,36.23-32.85h0V157.4Z"/></clipPath><linearGradient id="linear-gradient-51" x1="268.16" y1="124.59" x2="268.16" y2="245.85" xlink:href="#linear-gradient-43"/><clipPath id="clip-path-36"><path class="cls-17" d="M263.57,233.88c-18.6-.3-33.49-13.65-33.85-30.39V159.86c15.92-.92,29.19-10.27,34.53-23.22,5.34,13,18.62,22.32,34.54,23.22v43.63c-.36,16.68-15.19,30-33.76,30.39h-1.44Z"/></clipPath><linearGradient id="linear-gradient-52" x1="283.32" y1="278.45" x2="246.59" y2="168.39" xlink:href="#linear-gradient-44"/><clipPath id="clip-path-37"><path class="cls-16" d="M452.57,480.67c-19.92-.32-36-14.85-36.38-32.86h0c-.38,18-16.39,32.47-36.23,32.86h-.82v46.15h0c.39,18,16.47,32.53,36.38,32.85H417c19.85-.38,35.86-14.89,36.24-32.85h0V480.67Z"/></clipPath><linearGradient id="linear-gradient-53" x1="420.1" y1="447.86" x2="420.1" y2="569.12" xlink:href="#linear-gradient-43"/><clipPath id="clip-path-38"><path class="cls-17" d="M415.51,557.15c-18.61-.3-33.5-13.65-33.85-30.39V483.13c15.92-.92,29.18-10.27,34.53-23.22,5.34,13,18.61,22.32,34.53,23.22v43.63c-.35,16.68-15.18,30-33.75,30.39h-1.44Z"/></clipPath><linearGradient id="linear-gradient-54" x1="435.25" y1="601.72" x2="398.53" y2="491.66" xlink:href="#linear-gradient-44"/><clipPath id="clip-path-39"><path class="cls-16" d="M301.06,480.67c-19.92-.32-36-14.85-36.38-32.86h0c-.39,18-16.39,32.47-36.24,32.86h-.81v46.15h0c.38,18,16.46,32.53,36.38,32.85h1.48c19.85-.38,35.85-14.89,36.24-32.85h0V480.67Z"/></clipPath><linearGradient id="linear-gradient-55" x1="268.59" y1="447.86" x2="268.59" y2="569.12" xlink:href="#linear-gradient-43"/><clipPath id="clip-path-40"><path class="cls-17" d="M264,557.15c-18.61-.3-33.5-13.65-33.86-30.39V483.13c15.92-.92,29.18-10.27,34.53-23.22,5.34,13,18.61,22.32,34.53,23.22v43.63c-.36,16.68-15.18,30-33.76,30.39H264Z"/></clipPath><linearGradient id="linear-gradient-56" x1="283.74" y1="601.72" x2="247.02" y2="491.66" xlink:href="#linear-gradient-44"/><clipPath id="clip-path-41"><path class="cls-16" d="M528.68,316.36c-19.91-.32-36-14.85-36.38-32.86h0c-.38,18-16.39,32.47-36.23,32.85h-.82V362.5h0c.39,18,16.47,32.54,36.38,32.86h1.49C513,395,529,380.47,529.34,362.5h0V316.36Z"/></clipPath><linearGradient id="linear-gradient-57" x1="496.21" y1="283.55" x2="496.21" y2="404.81" xlink:href="#linear-gradient-43"/><clipPath id="clip-path-42"><path class="cls-17" d="M491.62,392.83c-18.61-.3-33.49-13.64-33.85-30.38V318.82c15.92-.93,29.19-10.28,34.53-23.23,5.34,13,18.61,22.32,34.53,23.23v43.63c-.36,16.67-15.19,30-33.76,30.38h-1.44Z"/></clipPath><linearGradient id="linear-gradient-58" x1="511.36" y1="437.41" x2="474.64" y2="327.34" xlink:href="#linear-gradient-44"/><clipPath id="clip-path-43"><path class="cls-16" d="M224.44,317.81c-19.91-.32-36-14.85-36.38-32.86h0c-.38,18-16.38,32.47-36.23,32.86H151V364h0c.39,18,16.47,32.54,36.38,32.86h1.49c19.85-.39,35.85-14.89,36.23-32.86h0V317.81Z"/></clipPath><linearGradient id="linear-gradient-59" x1="191.97" y1="285" x2="191.97" y2="406.26" xlink:href="#linear-gradient-43"/><clipPath id="clip-path-44"><path class="cls-17" d="M187.38,394.29c-18.6-.3-33.49-13.65-33.85-30.39V320.27c15.92-.92,29.19-10.27,34.53-23.23,5.34,13,18.62,22.33,34.54,23.23V363.9c-.36,16.68-15.19,30-33.76,30.38h-1.44Z"/></clipPath><linearGradient id="linear-gradient-60" x1="207.13" y1="438.86" x2="170.4" y2="328.79" xlink:href="#linear-gradient-44"/><clipPath id="clip-path-45"><path class="cls-16" d="M226.51,156.5c-19.91-.32-36-14.85-36.38-32.85h0c-.39,18-16.39,32.47-36.24,32.85h-.81v46.15h0c.38,18,16.46,32.54,36.37,32.86h1.49c19.85-.39,35.85-14.89,36.24-32.86h0V156.5Z"/></clipPath><linearGradient id="linear-gradient-61" x1="194.04" y1="123.69" x2="194.04" y2="244.95" xlink:href="#linear-gradient-43"/><clipPath id="clip-path-46"><path class="cls-17" d="M189.45,233c-18.6-.3-33.49-13.65-33.85-30.39V159c15.92-.92,29.19-10.27,34.53-23.22,5.34,13,18.62,22.32,34.54,23.22v43.63c-.36,16.68-15.19,30-33.76,30.39h-1.44Z"/></clipPath><linearGradient id="linear-gradient-62" x1="209.2" y1="277.55" x2="172.48" y2="167.49" xlink:href="#linear-gradient-44"/></defs><title>noHeaderBGRepeatv2</title><g class="cls-42"><g id="Layer_1" data-name="Layer 1"><polygon class="cls-43" points="777.11 691.79 -62.22 717.13 0 0 757.65 0 777.11 691.79"/><g class="cls-44"><path class="cls-7" d="M415.51,399.55c-19.91-.32-36-14.84-36.38-32.85h0c-.38,18-16.39,32.47-36.23,32.85h-.82V445.7h0c.39,18,16.47,32.54,36.38,32.86h1.48c19.85-.39,35.86-14.89,36.24-32.86h0V399.55Z"/><g class="cls-45"><path class="cls-46" d="M415.51,399.55c-19.91-.32-36-14.84-36.38-32.85h0c-.38,18-16.39,32.47-36.23,32.85h-.82V445.7h0c.39,18,16.47,32.54,36.38,32.86h1.48c19.85-.39,35.86-14.89,36.24-32.86h0V399.55Z"/><circle class="cls-22" cx="344.16" cy="371.29" r="34.96"/><circle class="cls-23" cx="414.08" cy="371.29" r="34.96"/><path class="cls-8" d="M378.45,476c-18.61-.3-33.49-13.64-33.85-30.38V402c15.92-.92,29.19-10.27,34.53-23.22,5.34,13,18.61,22.32,34.53,23.22v43.64c-.36,16.67-15.19,30-33.76,30.38h-1.44Z"/><g class="cls-47"><polygon class="cls-29" points="330.93 461.32 452.39 428.38 443.59 505.86 380.44 544.41 305.85 524.58 330.93 461.32"/></g></g></g><g class="cls-44"><path class="cls-9" d="M453.88,317.81C434,317.49,417.88,303,417.5,285h0c-.39,18-16.39,32.47-36.24,32.86h-.81V364h0c.38,18,16.46,32.54,36.38,32.86h1.48c19.85-.39,35.85-14.89,36.24-32.86h0V317.81Z"/><g class="cls-48"><path class="cls-49" d="M453.88,317.81C434,317.49,417.88,303,417.5,285h0c-.39,18-16.39,32.47-36.24,32.86h-.81V364h0c.38,18,16.46,32.54,36.38,32.86h1.48c19.85-.39,35.85-14.89,36.24-32.86h0V317.81Z"/><circle class="cls-22" cx="382.53" cy="289.54" r="34.96"/><circle class="cls-23" cx="452.44" cy="289.54" r="34.96"/><path class="cls-8" d="M416.82,394.29c-18.61-.3-33.5-13.65-33.86-30.39V320.27c15.92-.92,29.18-10.27,34.53-23.23,5.34,13,18.61,22.33,34.53,23.23V363.9c-.35,16.68-15.18,30-33.76,30.38h-1.43Z"/><g class="cls-50"><polygon class="cls-29" points="369.3 379.57 490.76 346.64 481.96 424.11 418.81 462.67 344.22 442.83 369.3 379.57"/></g></g></g><g class="cls-44"><path class="cls-10" d="M112.85,232.62c-19.92-.32-36-14.85-36.38-32.86h0c-.39,18-16.39,32.47-36.24,32.85H39.4v46.14h0c.38,18,16.46,32.54,36.38,32.86h1.48c19.85-.39,35.85-14.89,36.24-32.86h0V232.62Z"/><g class="cls-51"><path class="cls-52" d="M112.85,232.62c-19.92-.32-36-14.85-36.38-32.86h0c-.39,18-16.39,32.47-36.24,32.85H39.4v46.14h0c.38,18,16.46,32.54,36.38,32.86h1.48c19.85-.39,35.85-14.89,36.24-32.86h0V232.62Z"/><circle class="cls-22" cx="41.5" cy="204.35" r="34.96"/><circle class="cls-23" cx="111.41" cy="204.35" r="34.96"/><path class="cls-8" d="M75.79,309.09c-18.61-.3-33.5-13.64-33.86-30.38V235.08c15.92-.93,29.18-10.28,34.53-23.23,5.34,13,18.61,22.32,34.53,23.23v43.63c-.35,16.67-15.18,30-33.76,30.38H75.79Z"/><g class="cls-53"><polygon class="cls-29" points="28.27 294.38 149.73 261.44 140.93 338.92 77.78 377.47 3.19 357.64 28.27 294.38"/></g></g></g><g class="cls-44"><path class="cls-12" d="M149.91,155.52c-19.92-.32-36-14.85-36.38-32.86h0c-.39,18-16.39,32.47-36.24,32.86h-.81v46.14h0c.38,18,16.46,32.54,36.38,32.86h1.48c19.85-.39,35.85-14.89,36.24-32.86h0V155.52Z"/><g class="cls-54"><path class="cls-55" d="M149.91,155.52c-19.92-.32-36-14.85-36.38-32.86h0c-.39,18-16.39,32.47-36.24,32.86h-.81v46.14h0c.38,18,16.46,32.54,36.38,32.86h1.48c19.85-.39,35.85-14.89,36.24-32.86h0V155.52Z"/><circle class="cls-22" cx="78.56" cy="127.25" r="34.96"/><circle class="cls-23" cx="148.47" cy="127.25" r="34.96"/><path class="cls-8" d="M112.85,232c-18.61-.3-33.5-13.65-33.86-30.39V158c15.93-.92,29.19-10.27,34.53-23.23,5.34,13,18.62,22.33,34.54,23.23v43.63c-.36,16.68-15.18,30-33.76,30.38h-1.43Z"/><g class="cls-56"><polygon class="cls-29" points="65.33 217.28 186.78 184.35 177.99 261.82 114.84 300.38 40.25 280.54 65.33 217.28"/></g></g></g><g class="cls-44"><path class="cls-13" d="M605,478.55c-19.92-.32-36-14.85-36.38-32.86h0c-.39,18-16.39,32.47-36.24,32.86h-.81V524.7h0c.38,18,16.46,32.54,36.38,32.86h1.48c19.85-.39,35.85-14.9,36.24-32.86h0V478.55Z"/><g class="cls-57"><path class="cls-58" d="M605,478.55c-19.92-.32-36-14.85-36.38-32.86h0c-.39,18-16.39,32.47-36.24,32.86h-.81V524.7h0c.38,18,16.46,32.54,36.38,32.86h1.48c19.85-.39,35.85-14.9,36.24-32.86h0V478.55Z"/><circle class="cls-22" cx="533.61" cy="450.29" r="34.96"/><circle class="cls-23" cx="603.52" cy="450.29" r="34.96"/><path class="cls-8" d="M567.9,555c-18.61-.3-33.5-13.65-33.86-30.39V481c15.93-.92,29.19-10.27,34.53-23.22,5.34,13,18.62,22.32,34.54,23.22v43.63c-.36,16.68-15.18,30-33.76,30.39H567.9Z"/><g class="cls-59"><polygon class="cls-29" points="520.38 540.32 641.84 507.38 633.04 584.86 569.89 623.41 495.3 603.57 520.38 540.32"/></g></g></g><g class="cls-44"><path class="cls-14" d="M643.68,237.65c-19.92-.32-36-14.85-36.38-32.85h0c-.39,18-16.39,32.46-36.24,32.85h-.81V283.8h0c.38,18,16.46,32.54,36.38,32.86h1.48c19.85-.39,35.85-14.89,36.24-32.86h0V237.65Z"/><g class="cls-60"><path class="cls-61" d="M643.68,237.65c-19.92-.32-36-14.85-36.38-32.85h0c-.39,18-16.39,32.46-36.24,32.85h-.81V283.8h0c.38,18,16.46,32.54,36.38,32.86h1.48c19.85-.39,35.85-14.89,36.24-32.86h0V237.65Z"/><circle class="cls-22" cx="572.33" cy="209.39" r="34.96"/><circle class="cls-23" cx="642.24" cy="209.39" r="34.96"/><path class="cls-8" d="M606.62,314.13c-18.61-.3-33.5-13.65-33.86-30.39V240.11c15.93-.92,29.19-10.27,34.53-23.22,5.34,13,18.62,22.32,34.54,23.22v43.63c-.36,16.68-15.18,30-33.76,30.39h-1.43Z"/><g class="cls-62"><polygon class="cls-29" points="559.1 299.42 680.55 266.48 671.76 343.96 608.61 382.51 534.02 362.67 559.1 299.42"/></g></g></g><g class="cls-44"><path class="cls-15" d="M565.74,75.61c-19.92-.32-36-14.85-36.38-32.86h0c-.38,18-16.39,32.47-36.23,32.86h-.82v46.14h0c.39,18,16.47,32.54,36.38,32.86h1.48c19.85-.39,35.86-14.89,36.24-32.86h0V75.61Z"/><g class="cls-63"><path class="cls-64" d="M565.74,75.61c-19.92-.32-36-14.85-36.38-32.86h0c-.38,18-16.39,32.47-36.23,32.86h-.82v46.14h0c.39,18,16.47,32.54,36.38,32.86h1.48c19.85-.39,35.86-14.89,36.24-32.86h0V75.61Z"/><circle class="cls-22" cx="494.39" cy="47.34" r="34.96"/><circle class="cls-23" cx="564.31" cy="47.34" r="34.96"/><path class="cls-8" d="M528.68,152.09c-18.61-.3-33.5-13.65-33.85-30.39V78.07c15.92-.92,29.18-10.27,34.53-23.23,5.34,13,18.61,22.33,34.53,23.23V121.7c-.35,16.68-15.18,30-33.75,30.38h-1.44Z"/><g class="cls-65"><polygon class="cls-29" points="481.16 137.37 602.62 104.44 593.82 181.91 530.67 220.47 456.08 200.63 481.16 137.37"/></g></g></g><g class="cls-44"><path class="cls-16" d="M452.57,154.62c-19.92-.32-36-14.85-36.38-32.86h0c-.38,18-16.39,32.47-36.23,32.86h-.82v46.15h0c.39,18,16.47,32.53,36.38,32.85H417c19.85-.38,35.86-14.89,36.24-32.85h0V154.62Z"/><g class="cls-66"><rect class="cls-67" x="352.07" y="99.45" width="136.05" height="139.42"/><circle class="cls-68" cx="381.22" cy="126.36" r="34.96"/><circle class="cls-68" cx="451.14" cy="126.36" r="34.96"/><g class="cls-69"><path class="cls-17" d="M415.51,231.1c-18.61-.3-33.5-13.65-33.85-30.39V157.08c15.92-.92,29.18-10.27,34.53-23.22,5.34,13,18.61,22.32,34.53,23.22v43.63c-.35,16.68-15.18,30-33.75,30.39h-1.44Z"/><g class="cls-70"><polygon class="cls-71" points="366.67 199.38 488.13 166.44 479.33 243.92 416.18 282.48 341.59 262.64 366.67 199.38"/></g></g></g></g><g class="cls-44"><path class="cls-16" d="M641.7,399.55c-19.91-.32-36-14.84-36.37-32.85h0c-.39,18-16.39,32.47-36.24,32.85h-.81V445.7h0c.38,18,16.46,32.54,36.37,32.86h1.49c19.85-.39,35.85-14.89,36.24-32.86h0V399.55Z"/><g class="cls-72"><rect class="cls-73" x="541.21" y="344.38" width="136.05" height="139.42"/><circle class="cls-68" cx="570.36" cy="371.29" r="34.96"/><circle class="cls-68" cx="640.27" cy="371.29" r="34.96"/><g class="cls-69"><path class="cls-17" d="M604.64,476c-18.6-.3-33.49-13.64-33.85-30.38V402c15.92-.92,29.19-10.27,34.53-23.22,5.34,13,18.62,22.32,34.54,23.22v43.64c-.36,16.67-15.19,30-33.76,30.38h-1.44Z"/><g class="cls-74"><polygon class="cls-75" points="555.8 444.32 677.26 411.38 668.46 488.86 605.32 527.41 530.73 507.57 555.8 444.32"/></g></g></g></g><g class="cls-44"><path class="cls-16" d="M567.07,399.55c-19.91-.32-36-14.84-36.38-32.85h0c-.38,18-16.39,32.47-36.23,32.85h-.82V445.7h0c.39,18,16.47,32.54,36.38,32.86h1.49c19.84-.39,35.85-14.89,36.23-32.86h0V399.55Z"/><g class="cls-76"><rect class="cls-77" x="466.57" y="344.38" width="136.05" height="139.42"/><circle class="cls-68" cx="495.73" cy="371.29" r="34.96"/><circle class="cls-68" cx="565.64" cy="371.29" r="34.96"/><g class="cls-69"><path class="cls-17" d="M530,476c-18.61-.3-33.49-13.64-33.85-30.38V402c15.92-.92,29.19-10.27,34.53-23.22,5.34,13,18.61,22.32,34.54,23.22v43.64c-.36,16.67-15.19,30-33.76,30.38H530Z"/><g class="cls-78"><polygon class="cls-79" points="481.17 444.32 602.63 411.38 593.83 488.86 530.68 527.41 456.09 507.57 481.17 444.32"/></g></g></g></g><g class="cls-44"><path class="cls-16" d="M112.85,397.26c-19.92-.32-36-14.85-36.38-32.86h0c-.39,18-16.39,32.47-36.24,32.86H39.4v46.15h0c.38,18,16.46,32.53,36.38,32.85h1.48c19.85-.39,35.85-14.89,36.24-32.85h0V397.26Z"/><g class="cls-80"><rect class="cls-81" x="12.35" y="342.09" width="136.05" height="139.42"/><circle class="cls-68" cx="41.5" cy="368.99" r="34.96"/><circle class="cls-68" cx="111.41" cy="368.99" r="34.96"/><g class="cls-69"><path class="cls-17" d="M75.79,473.74c-18.61-.3-33.5-13.65-33.86-30.39V399.72c15.92-.92,29.18-10.27,34.53-23.23,5.34,13,18.61,22.33,34.53,23.23v43.63c-.35,16.68-15.18,30-33.76,30.39H75.79Z"/><g class="cls-82"><polygon class="cls-83" points="26.95 442.02 148.4 409.08 139.61 486.56 76.46 525.12 1.87 505.28 26.95 442.02"/></g></g></g></g><g class="cls-44"><path class="cls-16" d="M300.63,157.4c-19.91-.32-36-14.85-36.38-32.86h0c-.39,18-16.39,32.47-36.24,32.86h-.82v46.15h0c.39,18,16.47,32.54,36.38,32.86h1.49c19.85-.38,35.85-14.89,36.23-32.85h0V157.4Z"/><g class="cls-84"><rect class="cls-85" x="200.13" y="102.23" width="136.05" height="139.42"/><circle class="cls-68" cx="229.29" cy="129.14" r="34.96"/><circle class="cls-68" cx="299.2" cy="129.14" r="34.96"/><g class="cls-69"><path class="cls-17" d="M263.57,233.88c-18.6-.3-33.49-13.65-33.85-30.39V159.86c15.92-.92,29.19-10.27,34.53-23.22,5.34,13,18.62,22.32,34.54,23.22v43.63c-.36,16.68-15.19,30-33.76,30.39h-1.44Z"/><g class="cls-86"><polygon class="cls-87" points="214.73 202.16 336.19 169.23 327.39 246.7 264.24 285.26 189.65 265.42 214.73 202.16"/></g></g></g></g><g class="cls-44"><path class="cls-16" d="M452.57,480.67c-19.92-.32-36-14.85-36.38-32.86h0c-.38,18-16.39,32.47-36.23,32.86h-.82v46.15h0c.39,18,16.47,32.53,36.38,32.85H417c19.85-.38,35.86-14.89,36.24-32.85h0V480.67Z"/><g class="cls-88"><rect class="cls-89" x="352.07" y="425.5" width="136.05" height="139.42"/><circle class="cls-68" cx="381.22" cy="452.41" r="34.96"/><circle class="cls-68" cx="451.14" cy="452.41" r="34.96"/><g class="cls-69"><path class="cls-17" d="M415.51,557.15c-18.61-.3-33.5-13.65-33.85-30.39V483.13c15.92-.92,29.18-10.27,34.53-23.22,5.34,13,18.61,22.32,34.53,23.22v43.63c-.35,16.68-15.18,30-33.75,30.39h-1.44Z"/><g class="cls-90"><polygon class="cls-91" points="366.67 525.43 488.13 492.5 479.33 569.97 416.18 608.53 341.59 588.69 366.67 525.43"/></g></g></g></g><g class="cls-44"><path class="cls-16" d="M301.06,480.67c-19.92-.32-36-14.85-36.38-32.86h0c-.39,18-16.39,32.47-36.24,32.86h-.81v46.15h0c.38,18,16.46,32.53,36.38,32.85h1.48c19.85-.38,35.85-14.89,36.24-32.85h0V480.67Z"/><g class="cls-92"><rect class="cls-93" x="200.56" y="425.5" width="136.05" height="139.42"/><circle class="cls-68" cx="229.71" cy="452.41" r="34.96"/><circle class="cls-68" cx="299.62" cy="452.41" r="34.96"/><g class="cls-69"><path class="cls-17" d="M264,557.15c-18.61-.3-33.5-13.65-33.86-30.39V483.13c15.92-.92,29.18-10.27,34.53-23.22,5.34,13,18.61,22.32,34.53,23.22v43.63c-.36,16.68-15.18,30-33.76,30.39H264Z"/><g class="cls-94"><polygon class="cls-95" points="215.16 525.43 336.61 492.5 327.82 569.97 264.67 608.53 190.08 588.69 215.16 525.43"/></g></g></g></g><g class="cls-44"><path class="cls-16" d="M528.68,316.36c-19.91-.32-36-14.85-36.38-32.86h0c-.38,18-16.39,32.47-36.23,32.85h-.82V362.5h0c.39,18,16.47,32.54,36.38,32.86h1.49C513,395,529,380.47,529.34,362.5h0V316.36Z"/><g class="cls-96"><rect class="cls-97" x="428.18" y="261.18" width="136.05" height="139.42"/><circle class="cls-68" cx="457.33" cy="288.09" r="34.96"/><circle class="cls-68" cx="527.25" cy="288.09" r="34.96"/><g class="cls-69"><path class="cls-17" d="M491.62,392.83c-18.61-.3-33.49-13.64-33.85-30.38V318.82c15.92-.93,29.19-10.28,34.53-23.23,5.34,13,18.61,22.32,34.53,23.23v43.63c-.36,16.67-15.19,30-33.76,30.38h-1.44Z"/><g class="cls-98"><polygon class="cls-99" points="442.78 361.12 564.24 328.18 555.44 405.66 492.29 444.21 417.7 424.37 442.78 361.12"/></g></g></g></g><g class="cls-44"><path class="cls-16" d="M224.44,317.81c-19.91-.32-36-14.85-36.38-32.86h0c-.38,18-16.38,32.47-36.23,32.86H151V364h0c.39,18,16.47,32.54,36.38,32.86h1.49c19.85-.39,35.85-14.89,36.23-32.86h0V317.81Z"/><g class="cls-100"><rect class="cls-101" x="123.94" y="262.63" width="136.05" height="139.42"/><circle class="cls-68" cx="153.1" cy="289.54" r="34.96"/><circle class="cls-68" cx="223.01" cy="289.54" r="34.96"/><g class="cls-69"><path class="cls-17" d="M187.38,394.29c-18.6-.3-33.49-13.65-33.85-30.39V320.27c15.92-.92,29.19-10.27,34.53-23.23,5.34,13,18.62,22.33,34.54,23.23V363.9c-.36,16.68-15.19,30-33.76,30.38h-1.44Z"/><g class="cls-102"><polygon class="cls-103" points="138.54 362.57 260 329.63 251.2 407.11 188.05 445.66 113.46 425.83 138.54 362.57"/></g></g></g></g><g class="cls-44"><path class="cls-16" d="M226.51,156.5c-19.91-.32-36-14.85-36.38-32.85h0c-.39,18-16.39,32.47-36.24,32.85h-.81v46.15h0c.38,18,16.46,32.54,36.37,32.86h1.49c19.85-.39,35.85-14.89,36.24-32.86h0V156.5Z"/><g class="cls-104"><rect class="cls-105" x="126.02" y="101.33" width="136.05" height="139.42"/><circle class="cls-68" cx="155.17" cy="128.24" r="34.96"/><circle class="cls-68" cx="225.08" cy="128.24" r="34.96"/><g class="cls-69"><path class="cls-17" d="M189.45,233c-18.6-.3-33.49-13.65-33.85-30.39V159c15.92-.92,29.19-10.27,34.53-23.22,5.34,13,18.62,22.32,34.54,23.22v43.63c-.36,16.68-15.19,30-33.76,30.39h-1.44Z"/><g class="cls-106"><polygon class="cls-107" points="140.61 201.27 262.07 168.33 253.27 245.81 190.13 284.36 115.53 264.52 140.61 201.27"/></g></g></g></g></g></g></svg>