<svg xmlns="http://www.w3.org/2000/svg" viewBox="0 0 65.46 88.97"><defs><style>.cls-1{fill:#ffc425;}.cls-2{fill:#00539b;}.cls-3{fill:#fff;}</style></defs><title>rodgersShield</title><g id="Layer_2" data-name="Layer 2"><g id="Layer_1-2" data-name="Layer 1"><rect class="cls-1" x="33.4" width="32.06" height="43.83"/><rect class="cls-2" width="32.06" height="43.83"/><path class="cls-2" d="M33.4,89A32.71,32.71,0,0,0,65.46,56.26V45.16H33.4Z"/><path class="cls-1" d="M0,56.26A32.71,32.71,0,0,0,32.06,89V45.16H0Z"/><path class="cls-3" d="M24.43,6.54c-2.95.21-5.74.4-7.6.4-2.53,0-5.29-.21-7.72-.4C7.3,6.4,5.73,6.27,4.62,6.27,1.53,6.27.43,8,.43,9.39c0,2.86,3.21,2.86,4.41,2.86,1.41,0,4.71.13,4.95,1.33.31,1.52.83,5.94.83,18.58V43.83H23.85v-.62c.07.07.12.15.19.22a3.51,3.51,0,0,0,.53.4h7.49V38.18l-.33,0a25.53,25.53,0,0,1-4.15.35c-1.81.08-3,.51-3.73,1.28V36c0-14.08.18-20.62.61-22.59.07-.38,1.07-.94,4.4-.94a26,26,0,0,1,3,.17h.24V6.11H32C29.65,6.18,27,6.37,24.43,6.54ZM25,66c-.52-2.75-1.14-9.87-1.15-20.87H10.62v1.36c0,10.86-.09,16.89-.59,19.67-.17.85-.37,1.94-5.19,1.94a4.3,4.3,0,0,0-2.37.61,32.63,32.63,0,0,0,2.81,5.33h0c1.06,0,2.77-.13,4.75-.27,2.43-.19,5.2-.39,7.23-.39,1.66,0,4.08.17,6.42.34s4.43.32,5.91.32a6.42,6.42,0,0,0,2.46-.4V68.6a6.37,6.37,0,0,0-2.66-.47C25.41,68.13,25.17,66.86,25,66ZM45.09,45.16H33.4v4.69C41.57,61.11,48.25,70.18,56.32,78.7l.13.1a32.51,32.51,0,0,0,7-11.26A211.6,211.6,0,0,1,45.09,45.16Zm-1.48-1.73a1.86,1.86,0,0,0-.31-.76l-1.09-1.56c9.39-4.36,14.54-10.87,14.54-18.52,0-11.12-7.41-16.52-22.63-16.52H33.4v6.85c6.09,1.27,9.05,5.29,9.05,12.28s-3,11.08-9.05,12.65v6H44.09A2,2,0,0,0,43.61,43.43ZM32.06,48V45.16H29.54C29.63,45.23,32,47.92,32.06,48Z"/><path class="cls-2" d="M29.4,70.13c-3.45,0-5.8-.84-6.36-3.72s-1.18-9.84-1.19-21.25H12.62v1.36c0,11.3-.1,17.13-.62,20-.52,2.72-2.66,3.59-7.16,3.59a1.9,1.9,0,0,0-1.52.49c.22.45.45.91.7,1.35a6.26,6.26,0,0,0,1.27.1c2.26,0,8.24-.66,12-.66,3.35,0,9.41.66,12.33.66,1.48,0,2.14-.21,2.14-.91S31.11,70.13,29.4,70.13Z"/><path class="cls-2" d="M4.62,8.27c-1.21,0-2.19.36-2.19,1.12s.81.86,2.41.86c4.22,0,6.49.88,6.91,2.94.49,2.41.87,8.2.87,19V43.83h9.23V36c0-16.84.26-21.22.66-23s2.33-2.51,6.35-2.51a25.14,25.14,0,0,1,3.2.19V8.1c-5,.17-11.66.84-15.23.84C12.31,8.94,7.06,8.27,4.62,8.27Z"/><path class="cls-2" d="M42.62,45.16H33.4v1.29l.11.14c9.26,12.78,16,22,24.26,30.73a33,33,0,0,0,4.86-7.74A218.44,218.44,0,0,1,42.62,45.16Z"/><path class="cls-2" d="M25.25,41.61c0,.43.72.91,1.92.88a5.34,5.34,0,0,1,3.93,1.34h1V40.18a28.46,28.46,0,0,1-4.47.37C26.05,40.62,25.25,40.87,25.25,41.61Z"/><path class="cls-2" d="M39.18,40.25C49.4,36.17,54.75,29.84,54.75,22.59c0-9.59-6-14.52-20.63-14.52H33.4v2.81c6.93,1.29,11.05,5.81,11.05,14.32S40.36,38.31,33.4,39.92v3.91h8.27C40.81,42.61,40,41.41,39.18,40.25Z"/></g></g></svg>