<?xml version="1.0" encoding="utf-8"?>
<!-- Generator: Adobe Illustrator 23.0.3, SVG Export Plug-In . SVG Version: 6.00 Build 0)  -->
<svg version="1.1" id="Layer_1" xmlns="http://www.w3.org/2000/svg" xmlns:xlink="http://www.w3.org/1999/xlink" x="0px" y="0px"
	 viewBox="0 0 979.9 807" style="enable-background:new 0 0 979.9 807;" xml:space="preserve">
<g>
	<path d="M778.1,201.8l-172.9,317H951L778.1,201.8z M201.7,201.8l-172.9,317h345.8L201.7,201.8z M571.4,115.3
		c-4.2,12-11,22.7-20.5,32.2s-20.2,16.3-32.2,20.5v581.4h273.8c4.2,0,7.6,1.3,10.4,4s4.1,6.1,4,10.4v28.8c0,4.2-1.3,7.6-4,10.4
		c-2.7,2.7-6.1,4.1-10.4,4H187.3c-4.2,0-7.6-1.3-10.4-4c-2.7-2.7-4.1-6.1-4-10.4v-28.8c0-4.2,1.3-7.6,4-10.4s6.1-4.1,10.4-4h273.8
		V168c-12-4.2-22.7-11-32.2-20.5s-16.3-20.2-20.5-32.2H187.3c-4.2,0-7.6-1.3-10.4-4c-2.7-2.7-4.1-6.1-4-10.4V72.1
		c0-4.2,1.3-7.6,4-10.4c2.7-2.7,6.1-4.1,10.4-4h221.1c6.3-17.1,16.8-31,31.5-41.7s31.4-16,50-16c18.6,0,35.3,5.4,50,16
		s25.2,24.5,31.5,41.7h221.1c4.2,0,7.6,1.3,10.4,4c2.7,2.7,4.1,6.1,4,10.4v28.8c0,4.2-1.3,7.6-4,10.4s-6.1,4.1-10.4,4H571.4
		L571.4,115.3z M489.9,122.5c9.9,0,18.4-3.5,25.4-10.6s10.6-15.5,10.6-25.4s-3.5-18.3-10.6-25.4c-7.1-7.1-15.6-10.6-25.4-10.6
		s-18.3,3.5-25.4,10.6s-10.6,15.5-10.6,25.4s3.6,18.3,10.6,25.4S480,122.5,489.9,122.5z M979.9,518.8c0,21.9-7,41.6-20.9,59
		s-31.6,31.1-52.9,41c-21.3,9.9-43,17.3-65.1,22.3s-43,7.4-62.8,7.4s-40.8-2.5-62.8-7.4s-43.8-12.4-65.1-22.3
		c-21.3-9.9-39-23.6-52.9-41s-20.9-37.1-20.9-59c0-3.3,5.2-15.5,15.7-36.5s24.3-47.2,41.4-78.6c17.1-31.4,33.2-60.7,48.2-88
		s30.3-55,45.9-82.9c15.6-27.9,24.1-42.9,25.2-45c5.4-9.9,13.8-14.9,25.2-14.9s19.8,5,25.2,14.9c1.2,2.1,9.6,17.1,25.2,45
		c15.6,27.9,31,55.5,45.9,82.9c15,27.4,31.1,56.7,48.2,88c17.1,31.3,31,57.5,41.4,78.6c10.5,21.1,15.7,33.2,15.7,36.5H979.9z
		 M403.5,518.8c0,21.9-7,41.6-20.9,59s-31.6,31.1-52.9,41s-43,17.3-65.1,22.3s-43,7.4-62.8,7.4S161,646,139,641.1
		s-43.7-12.4-65.1-22.3s-39-23.6-52.9-41s-21-37.1-21-59c0-3.3,5.2-15.5,15.7-36.5s24.3-47.2,41.4-78.6c17.1-31.4,33.2-60.7,48.2-88
		s30.3-55,45.9-82.9s24.1-42.9,25.2-45c5.4-9.9,13.8-14.9,25.2-14.9s19.8,5,25.2,14.9c1.2,2.1,9.6,17.1,25.2,45s31,55.5,45.9,82.9
		c15,27.4,31,56.7,48.2,88c17.1,31.3,31,57.5,41.4,78.6c10.5,21.1,15.7,33.2,15.7,36.5H403.5z"/>
</g>
</svg>
