<?xml version="1.0" encoding="utf-8"?>
<!-- Generator: Adobe Illustrator 23.0.3, SVG Export Plug-In . SVG Version: 6.00 Build 0)  -->
<svg version="1.1" id="Layer_1" xmlns="http://www.w3.org/2000/svg" xmlns:xlink="http://www.w3.org/1999/xlink" x="0px" y="0px"
	 viewBox="0 0 980.1 553.1" style="enable-background:new 0 0 980.1 553.1;" xml:space="preserve">
<g>
	<path d="M685.5,553.1c-3.5,0-6.8-2.1-8.2-5.5c-1.9-4.5,0.3-9.7,4.8-11.6l0,0c1.4-0.6,138.2-59.3,154.8-215.6
		c12.7-119.2-38.1-184.9-53.8-202c-11.3,0.6-47.6,0.8-69.7-20.5c-24.6-23.8-39.6-84.2-40.3-86.8c-0.7-3,0.1-6.1,2.2-8.3
		c2.1-2.2,5.2-3.2,8.2-2.5c2.6,0.5,63.5,13.5,88.1,37.4c20.9,20.2,22.9,53.9,22.9,67c16.4,17,73.9,87,60,217.7
		c-17.8,167-164.2,229.5-165.7,230.1C687.7,552.9,686.6,553.1,685.5,553.1z M694.4,21.2c6.3,20.4,17.8,50.8,31.3,63.9
		c13.4,12.9,36.6,15.7,50.7,15.7c0.1,0,0.1,0,0.2,0c-0.4-12.4-3.1-36.6-17.4-50.4C745.8,37.4,715,26.9,694.4,21.2z M294.5,553.1
		c-1.1,0-2.3-0.2-3.4-0.7c-1.5-0.6-147.9-63.1-165.7-230.1c-13.9-130.7,43.7-200.7,60-217.7c-0.1-13.1,2-46.8,22.9-67
		c24.6-23.8,85.5-36.8,88.1-37.4c3-0.6,6.1,0.3,8.2,2.5s3,5.3,2.2,8.3c-0.6,2.6-15.7,63-40.3,86.8c-22,21.3-58.3,21.2-69.6,20.5
		c-15.6,17.2-66.5,83.2-53.8,202c16.6,156.3,153.4,215,154.8,215.6c4.5,1.9,6.7,7.1,4.8,11.6C301.3,551.1,298,553.1,294.5,553.1z
		 M203.3,100.8c0.1,0,0.2,0,0.2,0c12.5,0,36.5-2,50.7-15.7c13.5-13.1,25-43.5,31.3-63.9c-20.6,5.6-51.4,16.1-64.9,29.2
		C206.4,64.2,203.7,88.3,203.3,100.8z M857.9,506.7c-0.7,0-1.3,0-1.9,0c-31-1.1-55.6-29.7-56.6-31c-3-3.5-2.8-8.7,0.4-12
		c1.1-1.1,27.7-27.8,58.7-26.8c29.5,1.1,73.8,28.8,75.7,30c2.7,1.7,4.3,4.7,4.2,7.9s-1.9,6-4.7,7.5
		C931.8,483.4,887.4,506.7,857.9,506.7z M819.1,470.4c7.8,7.1,22.1,17.9,37.5,18.5c14.8,0.5,37.7-7.9,53.8-15.1
		c-15.6-8.4-37.8-18.5-52.6-19l0,0C843.3,454.3,828.2,463.3,819.1,470.4z M122.1,506.7c-29.5,0-73.9-23.4-75.8-24.4
		c-2.8-1.5-4.6-4.4-4.7-7.5c-0.1-3.2,1.5-6.2,4.2-7.9c1.9-1.2,46.3-28.9,75.7-30c31-1.1,57.6,25.6,58.7,26.8c3.2,3.3,3.4,8.5,0.4,12
		c-1,1.2-25.6,29.8-56.6,31C123.4,506.7,122.7,506.7,122.1,506.7z M69.5,473.8c16.2,7.2,39.1,15.6,53.8,15.1
		c14.6-0.5,29-10.7,37.5-18.4c-8.3-6.5-23.3-16.3-38.8-15.7C107.3,455.3,85.1,465.4,69.5,473.8z M778,451.1c-1.2,0-2.3-0.2-3.4-0.7
		c-1.4-0.6-34.1-14.6-42.1-41.3l0,0c-7.4-24.8,4.7-68,6.1-72.9c0.8-2.9,3.1-5.2,6-6.1c2.9-0.9,6-0.2,8.3,1.8
		c3.8,3.3,37.7,32.8,45.1,57.6c8,26.7-11.7,56.4-12.6,57.6C783.7,449.7,780.9,451.1,778,451.1z M749.5,404
		c3.7,12.4,16.8,21.6,25,26.4c4.3-8.4,10.1-23.3,6.4-35.8c-3.6-12.1-17.7-28.1-28.8-39.1C748.9,370.9,745.9,392,749.5,404L749.5,404
		z M202,451.1c-2.9,0-5.7-1.4-7.4-3.9c-0.8-1.2-20.6-30.9-12.6-57.6c7.4-24.8,41.2-54.3,45.1-57.6c2.3-2,5.4-2.6,8.3-1.8
		c2.9,0.9,5.2,3.1,6,6.1c1.4,4.8,13.5,48.1,6.1,72.9c-8,26.7-40.7,40.7-42.1,41.3C204.3,450.9,203.2,451.1,202,451.1z M227.9,355.6
		c-11.1,11-25.2,27-28.8,39.1c-3.7,12.5,2.1,27.3,6.4,35.8c8.2-4.7,21.2-13.9,25-26.4C234.1,392,231.1,370.9,227.9,355.6z
		 M895.3,407c-23.5,0-44.8-12.1-45.9-12.8c-3.9-2.3-5.5-7.1-3.7-11.3c0.7-1.5,16.2-36.3,45.8-45.9c28-9.2,79.5,2,81.6,2.5
		c3.1,0.7,5.6,2.9,6.5,5.9c1,3,0.3,6.3-1.8,8.6c-1.5,1.7-36.4,41-64.4,50.2C907.4,406.2,901.2,407,895.3,407z M866,382.6
		c9.8,4.1,27.1,9.6,41.8,4.8c14.2-4.6,32.8-20.8,45.4-33.3c-17.6-2.6-42.2-4.7-56.3-0.1l0,0C882.1,358.8,871.4,373.5,866,382.6z
		 M84.7,407c-6,0-12.1-0.8-18.1-2.7c-28.1-9.2-63-48.5-64.4-50.2c-2.1-2.4-2.8-5.7-1.8-8.6c1-3,3.5-5.3,6.5-5.9
		c2.2-0.5,53.6-11.6,81.6-2.5c29.5,9.6,45.1,44.4,45.8,45.9c1.8,4.2,0.2,9-3.7,11.3C129.6,394.9,108.3,407,84.7,407z M26.7,354
		c12.6,12.5,31.3,28.7,45.4,33.3c14,4.6,31.2-0.3,41.9-4.8c-5.4-9.1-16.2-23.8-31-28.6C68.9,349.3,44.3,351.4,26.7,354z
		 M620.6,357.3c-1.4,0-2.8-0.3-4.1-1l-37.4-19.7l-37.4,19.7c-3,1.6-6.6,1.3-9.4-0.7c-2.7-2-4.1-5.4-3.5-8.7l7.1-41.7l-30.3-29.5
		c-2.4-2.4-3.3-5.9-2.3-9.1s3.8-5.6,7.2-6.1l41.8-6.1l18.7-37.9c1.5-3,4.6-5,8-5s6.5,1.9,8,5l18.7,37.9l41.8,6.1
		c3.4,0.5,6.1,2.8,7.2,6.1s0.2,6.8-2.3,9.1l-30.3,29.5l7.1,41.7c0.6,3.3-0.8,6.7-3.5,8.7C624.3,356.8,622.5,357.3,620.6,357.3z
		 M579.1,317.7c1.4,0,2.8,0.3,4.1,1l25.6,13.5l-4.9-28.5c-0.5-2.9,0.5-5.8,2.6-7.9l20.7-20.2l-28.6-4.2c-2.9-0.4-5.4-2.2-6.7-4.9
		l-12.8-25.9l-12.8,26c-1.3,2.6-3.8,4.4-6.7,4.9l-28.6,4.2l20.7,20.2c2.1,2,3.1,5,2.6,7.9l-4.9,28.5l25.6-13.5
		C576.2,318,577.6,317.7,579.1,317.7z M442.5,357.3c-1.4,0-2.8-0.3-4.1-1l-37.5-19.7l-37.4,19.7c-3,1.6-6.6,1.3-9.4-0.7
		c-2.7-2-4.1-5.4-3.5-8.7l7.1-41.7l-30.3-29.5c-2.4-2.4-3.3-5.9-2.3-9.1s3.8-5.6,7.2-6.1l41.8-6.1l18.7-37.9c1.5-3,4.6-5,8-5l0,0
		c3.4,0,6.5,1.9,8,5l18.7,37.9l41.8,6.1c3.4,0.5,6.1,2.8,7.2,6.1c1,3.2,0.2,6.8-2.3,9.1l-30.3,29.5l7.1,41.7
		c0.6,3.3-0.8,6.7-3.5,8.7C446.2,356.8,444.3,357.3,442.5,357.3z M400.9,317.7c1.4,0,2.8,0.3,4.1,1l25.6,13.5l-4.9-28.5
		c-0.5-2.9,0.5-5.8,2.6-7.9l20.7-20.2l-28.6-4.2c-2.9-0.4-5.4-2.2-6.7-4.9l-12.8-25.9l-12.8,26c-1.3,2.6-3.8,4.4-6.7,4.9l-28.6,4.2
		l20.7,20.2c2.1,2,3.1,5,2.6,7.9l-4.9,28.5l25.6-13.5C398.1,318,399.5,317.7,400.9,317.7z M824.2,336.8c-5.5,0-36.6-0.9-53.8-20l0,0
		c-17.3-19.1-25.7-62.5-26.7-67.4c-0.6-3,0.5-6.2,2.8-8.2c2.3-2.1,5.5-2.8,8.5-1.9c4.8,1.4,47.1,14.3,64.4,33.4
		c18.6,20.6,14.5,55,14.3,56.4c-0.6,4.4-4.2,7.7-8.6,7.8C824.9,336.8,824.7,336.8,824.2,336.8z M783.6,304.9
		c8.6,9.5,23.5,12.6,32.8,13.6c-0.1-9.3-1.6-24.5-10.2-34c-8.3-9.2-27-17.8-41.4-23.2C768.7,276.2,775.3,295.7,783.6,304.9
		L783.6,304.9z M155.8,336.8c-0.4,0-0.7,0-0.8,0c-4.4-0.1-8.1-3.4-8.6-7.8c-0.2-1.5-4.3-35.8,14.3-56.4c17.3-19.1,59.6-32,64.4-33.4
		c3-0.9,6.2-0.1,8.5,1.9c2.3,2.1,3.4,5.2,2.8,8.2c-0.9,4.9-9.4,48.3-26.7,67.4C192.3,336,161.3,336.8,155.8,336.8z M215.3,261.4
		c-14.4,5.5-33.1,14-41.4,23.2c-8.6,9.5-10.2,24.7-10.2,34c9.3-1,24.2-4.1,32.8-13.7C204.7,295.7,211.3,276.2,215.3,261.4z
		 M107.7,298.1c-9.6,0-40.8-1.6-59.2-20.9c-20.4-21.4-31.7-73.4-32.2-75.6c-0.6-3,0.3-6.2,2.6-8.3c2.2-2.1,5.4-3,8.4-2.1
		c2.2,0.6,53.5,14.5,73.9,35.9c21.5,22.6,17.9,61.3,17.8,63c-0.4,4.4-4,7.8-8.4,8C110.3,298,109.3,298.1,107.7,298.1z M37.5,212.9
		c4.9,17.2,13.5,41.1,23.9,52c10.3,10.8,28.3,14.3,40,15.2c-0.2-10.7-2.3-29.4-13.1-40.8C77.9,228.4,54.5,218.7,37.5,212.9z
		 M872.3,298.1c-1.6,0-2.6,0-2.8-0.1c-4.4-0.2-8-3.6-8.4-8c-0.2-1.6-3.7-40.4,17.8-63l0,0c20.4-21.4,71.7-35.3,73.9-35.9
		c3-0.8,6.2,0,8.4,2.1s3.2,5.3,2.6,8.3c-0.5,2.2-11.8,54.1-32.2,75.6C913.1,296.5,881.8,298.1,872.3,298.1z M891.7,239.3
		c-10.8,11.4-12.9,30-13.1,40.7c10.7-0.7,29.2-3.7,40-15.1c10.4-10.9,18.9-34.8,23.9-52C925.5,218.7,902.1,228.4,891.7,239.3
		L891.7,239.3z M203,213.9c-21.7,0-41.2-11.9-42.2-12.5c-3.9-2.4-5.3-7.4-3.3-11.5c0.6-1.3,15.8-31.2,42.3-38.7
		c25.1-7.2,69.8,4,71.7,4.5c3.1,0.8,5.5,3.1,6.4,6.2s0,6.3-2.2,8.6c-1.4,1.4-33.5,34.4-58.6,41.6C212.5,213.3,207.7,213.9,203,213.9
		z M178.1,190.2c8.4,3.7,22.1,8.1,34.2,4.7c11.7-3.3,27.3-15.4,38.6-25.4c-14.9-2.6-34.5-4.6-46.2-1.3
		C192.6,171.6,183.3,182.6,178.1,190.2z M777,213.9c-4.7,0-9.4-0.6-14.2-1.9l0,0c-25.1-7.1-57.2-40.2-58.6-41.6
		c-2.2-2.3-3-5.6-2.2-8.6c0.9-3.1,3.3-5.4,6.4-6.2c1.9-0.5,46.6-11.6,71.7-4.5c26.6,7.6,41.7,37.5,42.3,38.7c2,4.1,0.6,9.1-3.3,11.5
		C818.2,201.9,798.6,213.9,777,213.9z M729.1,169.5c11.3,10,26.9,22.1,38.6,25.4l0,0c12,3.4,25.8-1,34.2-4.7
		c-5.2-7.6-14.5-18.5-26.6-22C763.6,164.9,744,166.9,729.1,169.5z M849.9,187.2c-3.1,0-6.1-1.6-7.7-4.5c-0.8-1.4-20-35.4-9.6-64.8
		c9.9-27.9,51.2-61.5,53-62.9c2.4-1.9,5.7-2.5,8.6-1.5c2.9,1,5.1,3.5,5.7,6.5c0.5,2.2,11.4,54.3,1.5,82.2
		c-10.4,29.4-46.7,43.7-48.3,44.3C852.1,187,851,187.2,849.9,187.2z M885.1,79.1c-13.2,12.2-30.7,30.6-35.7,44.8
		c-5,14,0.1,31.8,4.7,42.6c9.5-5,25.3-15.3,30.6-30.1C889.7,122.2,887.7,96.8,885.1,79.1z M130.1,187.2c-1.1,0-2.1-0.2-3.2-0.6
		c-1.5-0.6-37.9-14.9-48.3-44.3c-9.9-27.9,1.1-80,1.5-82.2c0.6-3,2.8-5.5,5.7-6.5c2.9-1,6.2-0.5,8.6,1.5c1.8,1.4,43.1,35,53,62.9
		c10.4,29.4-8.8,63.4-9.6,64.8C136.1,185.6,133.2,187.2,130.1,187.2z M94.9,79.1c-2.6,17.8-4.5,43.1,0.5,57.3
		c5.3,14.8,21,25.1,30.5,30.1c4.2-9.9,10-27.8,4.7-42.6C125.6,109.7,108.1,91.2,94.9,79.1z"/>
</g>
</svg>
